<svg width="864" height="1184" version="1.1" xmlns="http://www.w3.org/2000/svg" desc="Created with imagetracer.js version 1.2.6" ><path fill="rgb(0,0,0)" stroke="rgb(0,0,0)" stroke-width="1" opacity="0" d="M 0 0 L 864 0 L 864 1184 L 0 1184 L 0 0 Z M 411 9 L 409 10 L 404 20 Q 399 22 390 21 L 386 23 L 380 32 Q 378 43 382 49 L 389 54 Q 394 57 404 55 L 406 58 Q 408 72 402 79 L 396 84 L 380 84 L 352 89 L 329 99 L 314 110 L 297 129 L 287 149 L 283 163 L 283 185 L 285 193 Q 290 210 301 221 L 303 224 L 316 233 L 336 242 L 338 245 L 336 252 Q 323 267 313 287 L 305 316 L 305 321 L 301 339 L 294 357 L 292 359 Q 285 380 274 399 L 267 417 L 252 446 L 236 484 L 195 571 L 175 618 L 168 631 L 166 638 L 164 640 L 155 662 L 130 714 L 116 748 L 103 774 L 14 980 L 15 992 L 24 1004 L 46 1019 L 93 1047 L 125 1069 L 172 1098 L 239 1134 L 263 1141 L 266 1143 Q 277 1145 283 1140 L 287 1136 L 290 1126 L 291 1072 L 292 1071 L 294 1039 L 295 1038 L 295 1024 L 297 1013 L 297 1004 L 298 1003 L 298 994 L 299 993 L 299 979 L 300 978 L 301 954 L 302 953 L 304 913 L 306 902 L 306 890 L 308 879 L 309 859 L 311 850 L 311 835 L 313 825 L 314 804 L 315 803 L 315 790 L 317 781 L 317 773 L 318 772 L 320 744 L 322 736 L 322 721 L 324 711 L 325 686 L 326 685 L 326 670 L 327 669 L 328 653 L 329 652 L 331 617 L 333 608 L 333 596 L 334 595 L 334 584 L 335 583 L 335 572 L 336 571 L 336 560 L 337 559 L 337 548 L 338 547 L 338 536 L 340 527 L 340 519 L 342 513 L 348 509 L 367 507 L 390 501 L 420 486 L 428 486 Q 445 498 468 505 L 472 505 L 485 509 L 491 509 L 500 512 L 504 520 L 507 547 L 508 548 L 508 567 L 510 576 L 511 593 L 512 594 L 515 645 L 516 646 L 517 666 L 519 673 L 521 707 L 523 718 L 523 727 L 524 728 L 524 744 L 526 754 L 528 790 L 530 799 L 530 808 L 531 809 L 533 848 L 535 857 L 535 868 L 537 876 L 537 887 L 539 896 L 539 907 L 541 918 L 541 927 L 542 928 L 542 944 L 544 954 L 544 969 L 545 970 L 545 982 L 546 983 L 546 1001 L 548 1011 L 548 1020 L 549 1021 L 549 1036 L 550 1037 L 551 1057 L 553 1066 L 554 1098 L 555 1099 L 555 1107 Q 558 1113 558 1123 L 562 1136 L 572 1143 L 579 1143 L 595 1138 L 697 1084 L 759 1047 L 792 1025 L 829 997 L 835 987 L 835 976 L 831 966 L 815 938 L 804 915 L 803 910 L 788 880 L 772 841 L 758 813 L 756 806 L 745 784 L 741 772 L 734 759 L 711 705 L 689 660 L 666 606 L 662 600 L 657 587 L 642 557 L 635 538 L 633 536 L 612 488 L 608 482 L 590 439 L 572 403 L 565 385 L 550 354 L 541 330 L 538 317 L 537 306 L 533 293 L 520 267 L 508 251 L 507 244 L 514 239 L 531 232 L 538 227 Q 547 219 554 208 L 562 189 L 563 177 L 564 176 L 563 156 L 559 144 Q 553 130 545 120 Q 530 100 506 91 L 492 87 L 479 86 L 478 85 L 448 84 Q 441 79 438 71 L 438 58 L 441 55 Q 451 57 457 53 L 461 48 L 463 39 L 462 30 L 459 25 L 454 21 L 442 21 L 440 20 L 436 13 L 432 9 L 411 9 Z M 416 506 L 406 511 Q 400 515 398 523 L 398 531 L 403 540 Q 409 546 420 548 Q 434 550 441 544 Q 447 540 449 532 Q 450 521 446 516 L 436 507 Q 428 504 416 506 Z M 419 558 L 406 561 Q 397 566 395 577 Q 395 588 400 594 L 407 599 L 420 603 L 433 601 L 440 597 Q 446 593 448 584 L 448 577 L 444 568 Q 437 557 419 558 Z M 415 612 L 404 616 Q 398 620 395 628 Q 393 638 397 644 Q 403 652 415 655 Q 430 657 438 651 Q 444 646 447 637 L 447 630 L 444 622 Q 436 610 415 612 Z M 418 665 L 407 668 L 402 672 Q 399 671 400 674 L 398 674 L 394 684 Q 393 695 398 700 Q 404 707 416 709 Q 432 710 441 702 L 446 693 Q 448 681 443 676 Q 436 665 418 665 Z M 415 719 Q 413 721 409 720 L 402 724 L 396 731 L 394 738 Q 394 747 398 752 Q 404 760 417 762 L 425 762 L 440 755 L 446 745 L 446 736 L 442 727 L 433 720 L 415 719 Z M 412 772 L 402 776 Q 394 780 392 790 Q 391 800 395 805 Q 401 813 414 815 L 424 815 L 436 811 Q 443 806 445 797 L 445 791 L 442 783 Q 434 770 412 772 Z M 414 824 L 406 826 L 401 829 Q 393 834 391 845 L 391 849 L 395 858 Q 401 866 414 868 L 425 868 L 434 865 L 438 862 Q 443 857 445 848 Q 445 839 441 834 Q 434 822 414 824 Z M 413 877 L 402 881 Q 394 886 391 896 L 391 902 L 396 912 Q 402 918 413 920 Q 427 922 435 916 Q 441 912 444 904 Q 446 891 440 886 Q 436 880 429 878 L 413 877 Z M 415 932 L 406 934 L 401 937 Q 394 942 392 952 L 393 960 L 395 964 Q 401 973 415 976 L 414 977 Q 405 976 402 979 Q 397 982 396 989 L 396 1007 L 391 1009 L 388 1008 L 354 1009 L 347 1012 L 337 1023 L 335 1033 L 336 1043 L 340 1052 Q 345 1059 356 1061 Q 360 1060 362 1062 L 394 1062 L 396 1066 L 396 1131 L 395 1132 L 395 1152 L 398 1160 L 406 1164 L 415 1164 L 416 1165 L 437 1165 Q 438 1163 443 1164 L 446 1162 L 449 1156 L 448 1064 L 452 1061 L 464 1061 L 465 1062 L 486 1062 L 497 1060 L 501 1058 Q 505 1054 507 1048 L 507 1027 L 504 1020 Q 498 1011 486 1009 L 452 1009 L 450 1008 L 448 1007 L 448 993 L 446 984 L 438 977 L 426 977 L 424 976 L 436 971 Q 442 967 445 959 Q 447 947 441 942 Q 434 930 415 932 Z " /><path fill="rgb(0,0,0)" stroke="rgb(0,0,0)" stroke-width="1" opacity="0" d="M 419.5 106 L 429.5 107 Q 440.7 112.8 448 122.5 Q 456.9 133.6 461 149.5 L 464 163.5 L 464 180.5 L 459 199.5 Q 455.1 209.1 447.5 215 L 433.5 223 L 414.5 224 L 403.5 221 L 392 209.5 L 383 187.5 Q 384.8 181.3 382 179.5 L 382 156.5 Q 384.5 155 383 149.5 L 388 136.5 Q 395.8 122.8 407.5 113 L 419.5 106 Z " /><path fill="rgb(0,0,0)" stroke="rgb(0,0,0)" stroke-width="1" opacity="0" d="M 359.5 116 Q 365.8 113.8 364 119.5 Q 356 130 351 143.5 L 348 158.5 L 348 171.5 L 352 193.5 L 361 217 L 355.5 217 L 345.5 213 Q 334.6 207 327 197.5 Q 320.3 189.2 318 176.5 L 318 160.5 L 322 146.5 Q 328.7 135.2 338.5 127 L 345.5 122 L 359.5 116 Z " /><path fill="rgb(0,0,0)" stroke="rgb(0,0,0)" stroke-width="1" opacity="0" d="M 481 117 L 488.5 118 L 497.5 123 L 514 136.5 Q 522.3 145.7 526 159.5 L 527 177.5 Q 523.3 194.8 511.5 204 Q 500.4 212.6 484 215 Q 490.8 203.5 495 188.5 Q 493.8 183.8 496 182.5 L 496 156.5 L 494 145.5 L 490 134.5 L 483 123.5 L 481 117 Z " /><path fill="rgb(0,0,0)" stroke="rgb(0,0,0)" stroke-width="1" opacity="0" d="M 380.5 250 L 401.5 250 L 405.5 251 L 408 253.5 L 408 261.5 L 405 272.5 Q 399.4 284.9 389.5 293 Q 370.8 310.9 346 322 L 345 319.5 L 345 305.5 Q 354.1 276.1 371.5 255 L 380.5 250 Z " /><path fill="rgb(0,0,0)" stroke="rgb(0,0,0)" stroke-width="1" opacity="0" d="M 440.5 250 L 461.5 250 L 470 253 Q 468.9 255.7 471.5 255 L 481 266.5 L 492 285.5 L 499 305.5 L 499 322 L 491.5 321 L 468.5 307 L 455 296 Q 456.1 293.3 453.5 294 Q 438.1 279.9 435 253.5 L 436 251 L 440.5 250 Z " /><path fill="rgb(0,0,0)" stroke="rgb(0,0,0)" stroke-width="1" opacity="0" d="M 421.5 305 L 426.5 307 Q 442.4 321.6 461.5 333 L 484.5 346 L 490 351.5 Q 492.3 354.7 491 361.5 Q 485 377 473.5 387 L 470.5 389 Q 454.6 403.6 435.5 415 L 425.5 418 L 414.5 418 L 405.5 415 L 390.5 404 L 363 376.5 L 354 364.5 L 352 356.5 Q 353.6 349.6 359.5 347 L 409.5 311 L 421.5 305 Z " /><path fill="rgb(0,0,0)" stroke="rgb(0,0,0)" stroke-width="1" opacity="0" d="M 343.5 394 L 347 396.5 L 358 412 Q 360.7 410.9 360 413.5 Q 375.9 433.1 400.5 444 L 409.5 447 L 432.5 447 L 458.5 435 L 487 409.5 L 491 403 Q 493.7 404.1 493 401.5 Q 494.3 397.2 499 398 Q 501.2 403.2 500 413.5 L 501 414.5 L 501 439.5 L 502 440.5 L 502 455.5 L 503 456.5 L 503 476.5 Q 501.5 480.5 494.5 479 L 464.5 471 L 448.5 463 L 431.5 452 Q 426.8 449.7 418.5 451 L 407.5 455 Q 395.6 465.1 379.5 471 L 362.5 476 L 355.5 476 L 342.5 479 L 340 478 L 339 468.5 L 340 467.5 L 340 438.5 L 341 437.5 L 341 401.5 Q 343.3 400.3 342 395.5 L 343.5 394 Z " /><path fill="rgb(0,0,0)" stroke="rgb(0,0,0)" stroke-width="1" opacity="0" d="M 307 408 Q 310 406.8 309 410.5 L 310 415.5 L 309 416.5 L 309 431.5 L 308 432.5 L 308 453.5 L 306 464.5 L 305 487.5 L 304 488.5 L 301 556.5 L 299.5 558 L 296 555.5 Q 282.3 531.2 262 513.5 L 261 506.5 L 284 460.5 L 286 453.5 L 307 408 Z " /><path fill="rgb(0,0,0)" stroke="rgb(0,0,0)" stroke-width="1" opacity="0" d="M 536.5 408 L 540 412.5 L 542 419.5 Q 553.7 439.3 562 462.5 L 582 501.5 L 584 506.5 L 584 510.5 L 573 524 Q 570.3 522.9 571 525.5 L 563 533.5 L 545.5 559 L 544 556.5 L 543 537.5 L 542 536.5 L 540 480.5 L 538 469.5 L 538 440.5 L 537 439.5 L 537 422.5 L 536 421.5 Q 537.7 413.3 535 409.5 L 536.5 408 Z " /><path fill="rgb(0,0,0)" stroke="rgb(0,0,0)" stroke-width="1" opacity="0" d="M 245.5 546 L 250 548.5 L 271 580.5 L 285 612.5 L 290 639.5 L 290 662.5 L 287 678.5 L 278 707.5 L 262 741.5 L 243 767.5 L 220 792.5 L 220 794 L 218 794 L 218 796 Q 215.3 794.9 216 797.5 L 186 829.5 L 186 831 Q 183.3 829.9 184 832.5 Q 150.6 865.6 130 911.5 L 123 931.5 L 120 946.5 L 120 954.5 L 119 955.5 L 119 989.5 L 121 995.5 L 121 1000.5 L 125 1011.5 L 132 1024.5 L 142 1038 L 154.5 1047 L 176.5 1056 L 189.5 1059 L 213.5 1059 L 214.5 1058 L 231.5 1056 L 254.5 1046 L 256 1047.5 L 256 1056.5 L 254 1061.5 L 254 1068.5 L 253 1069.5 L 250 1092.5 L 248 1098.5 L 245.5 1101 L 241.5 1101 L 221.5 1092 L 151.5 1053 Q 105 1023.3 63 990 Q 64.1 987.3 61.5 988 L 52 977.5 L 51 967.5 L 70 924.5 L 81 906.5 L 93 891 Q 95.7 892.1 95 889.5 L 129.5 857 L 162.5 831 L 205.5 794 L 238 761.5 L 266 721.5 L 277 692.5 L 279 683.5 L 280 665.5 L 279 664.5 L 279 653.5 L 277 643.5 L 273 633.5 L 260.5 618 L 247.5 611 Q 241.4 611.6 238.5 609 L 223.5 609 L 216.5 611 L 215 607.5 L 234 569.5 L 237 560.5 L 245.5 546 Z " /><path fill="rgb(0,0,0)" stroke="rgb(0,0,0)" stroke-width="1" opacity="0" d="M 597.5 546 Q 601.3 545.3 602 547.5 L 630 610 L 609.5 609 L 593.5 613 L 577 626.5 Q 568.9 635.4 566 649.5 Q 567.3 654.3 565 655.5 L 565 679.5 L 569 697.5 L 584 731.5 Q 605.2 764.8 634.5 790 L 681.5 830 L 688 834 Q 686.9 836.7 689.5 836 L 708 851 Q 706.9 853.7 709.5 853 L 737.5 877 L 756 895.5 L 768 911.5 L 780 934.5 L 792 962.5 L 795 971.5 L 795 975.5 L 788.5 984 L 760.5 1007 L 711.5 1042 Q 689.9 1052.4 671.5 1066 Q 647.3 1076.3 626.5 1090 L 605.5 1100 L 598.5 1101 L 596 1096.5 L 593 1080.5 L 590 1047 L 599.5 1049 L 601.5 1051 L 615.5 1056 L 620.5 1056 L 632.5 1059 L 650.5 1059 L 667.5 1056 L 678.5 1052 Q 693.1 1046.6 703 1036.5 Q 718.6 1022.1 725 998.5 L 726 993.5 L 726 956.5 L 723 944.5 L 723 939.5 L 718 922.5 L 707 896.5 L 698 880.5 Q 684 858 667 838.5 L 609 776.5 L 592 755.5 L 579 734.5 L 570 716.5 L 559 685.5 L 556 673.5 L 554 643.5 L 555 642.5 L 556 625.5 L 565 596.5 L 577 573.5 L 594 549 Q 596.7 550.1 596 547.5 L 597.5 546 Z " /><path fill="rgb(0,0,0)" stroke="rgb(0,0,0)" stroke-width="1" opacity="0" d="M 612.5 640 L 626.5 643 L 634.5 647 L 647 656.5 L 652 665.5 L 652 674.5 L 646.5 681 L 638.5 682 L 620.5 673 L 614.5 672 L 609 676.5 Q 605.1 680.6 606 689.5 Q 607.9 697.2 613.5 701 L 632.5 710 L 648.5 711 L 670.5 704 L 674 706.5 L 727 823.5 L 725.5 824 L 716 818 Q 717.1 815.3 714.5 816 Q 670.5 782.5 633 742.5 L 615 718.5 L 604 696.5 L 600 680.5 L 600 658.5 L 602 650.5 L 607.5 642 L 612.5 640 Z " /><path fill="rgb(0,0,0)" stroke="rgb(0,0,0)" stroke-width="1" opacity="0" d="M 227.5 641 Q 236.5 639.5 239 644.5 L 244 656.5 L 245 681.5 Q 241.6 700.1 233 713.5 L 202 753 Q 199.3 751.9 200 754.5 L 176.5 777 L 175 777 Q 176.1 779.7 173.5 779 Q 154.3 797.7 132 812 Q 133.1 814.7 130.5 814 L 122.5 822 L 119 823 L 121 815.5 L 133 792.5 L 153 746.5 L 167 718.5 L 169 711.5 L 174.5 703 L 191.5 710 L 206.5 712 Q 223.4 708.9 233 698.5 Q 238.2 694.2 238 684.5 Q 236.8 677.8 232.5 674 L 225.5 672 L 210.5 681 L 202.5 682 Q 196.8 680.8 194 676.5 L 192 671.5 L 192 665.5 Q 194.5 657 200.5 652 Q 211.8 644.3 227.5 641 Z " /><path fill="rgb(0,0,0)" stroke="rgb(0,0,0)" stroke-width="1" opacity="0" d="M 283.5 764 Q 285.8 763.3 285 765.5 Q 287.5 767 286 772.5 L 285 773.5 L 285 783.5 L 284 784.5 L 281 819.5 L 279 827.5 L 279 838.5 L 278 839.5 L 278 850.5 L 276 860.5 L 276 872.5 L 275 873.5 L 275 884.5 L 274 885.5 L 272 915.5 L 269.5 918 L 253.5 911 L 232.5 910 Q 211.6 913.6 201 927.5 L 193 940.5 L 189 955.5 L 193.5 963 Q 196.8 966.2 204.5 965 L 213.5 961 L 228.5 949 L 242.5 943 L 247.5 943 L 256 948.5 L 261 956.5 L 265 969.5 L 265 991.5 Q 259.9 1005.4 249.5 1014 L 235.5 1022 L 222.5 1026 Q 217.8 1024.7 216.5 1027 L 192.5 1027 L 183.5 1025 L 174.5 1021 L 165 1012.5 Q 157.8 1003.7 155 990.5 L 154 963.5 L 155 962.5 L 155 952.5 L 158 936.5 L 169 909.5 L 185 883.5 L 217 845 Q 219.7 846.1 219 843.5 L 244 816.5 L 248 810 Q 250.7 811.1 250 808.5 L 268 787.5 L 283.5 764 Z " /><path fill="rgb(0,0,0)" stroke="rgb(0,0,0)" stroke-width="1" opacity="0" d="M 560 766 L 565 769.5 L 584 796.5 L 636 854.5 L 636 856 Q 638.7 854.9 638 857.5 L 643 864 Q 645.7 862.9 645 865.5 Q 670 892.5 684 930.5 L 690 957.5 L 690 989.5 Q 686.6 1008.6 673.5 1018 L 655.5 1026 L 650.5 1027 L 631.5 1027 L 620.5 1025 L 605.5 1020 Q 595.2 1015.8 589 1007.5 Q 578.7 996.3 579 974.5 L 583 958.5 L 590 946 L 595.5 943 L 604.5 943 Q 620 949.5 630.5 961 L 644.5 967 L 650.5 965 L 653 962.5 Q 656 959.5 655 952.5 Q 649.6 931.4 634.5 920 Q 627.5 913.5 616.5 911 L 594.5 911 L 583.5 914 L 575.5 918 L 573 915.5 Q 574.3 910.8 572 909.5 L 571 880.5 L 569 870.5 L 567 833.5 L 565 823.5 L 565 814.5 L 563 804.5 L 563 792.5 L 562 791.5 L 562 782.5 L 561 781.5 L 560 766 Z " /><path fill="rgb(245,245,245)" stroke="rgb(245,245,245)" stroke-width="1" opacity="0.9411764705882353" d="M 412.5 12 L 429.5 12 L 434 14 L 435 19.5 L 437.5 22 L 439.5 23 L 450.5 23 L 458 27.5 Q 462 32.5 460 43.5 L 454.5 51 Q 450.7 53.7 442.5 52 L 436 54 L 435 56.5 L 435 70.5 Q 438.1 80.4 445.5 86 L 448.5 87 L 482.5 88 L 499.5 92 Q 523.3 99.2 538 115.5 L 540 118.5 L 549 129.5 L 558 147.5 L 561 160.5 L 561 179.5 L 557 195.5 Q 551.2 209.7 541.5 220 Q 539.3 219.3 540 221.5 L 525.5 232 L 505 241 Q 503.4 243.1 504 248.5 L 519 269.5 L 529 289.5 L 535 308.5 L 536 319.5 L 540 335.5 L 547 353.5 L 586 435.5 L 602 474.5 L 629 530.5 L 638 553.5 L 653 583.5 L 690 667.5 L 693 671.5 L 720 730.5 L 744 787.5 Q 770.7 841.3 794 898.5 L 797 902.5 L 814 940.5 L 832 973.5 L 833 984.5 Q 830.9 991.9 825.5 996 L 788.5 1024 L 744.5 1053 L 705.5 1076 L 599.5 1133 L 580.5 1140 L 572.5 1141 L 565 1135.5 L 561 1124.5 L 558 1108.5 L 558 1100.5 L 557 1099.5 L 556 1076.5 L 555 1075.5 L 555 1059.5 L 554 1058.5 L 553 1042.5 L 552 1041.5 L 552 1027.5 L 551 1026.5 L 551 1013.5 L 550 1012.5 L 549 990.5 L 548 989.5 L 548 975.5 L 547 974.5 L 547 961.5 L 546 960.5 L 545 938.5 L 544 937.5 L 543 912.5 L 542 911.5 L 541 889.5 L 540 888.5 L 540 880.5 L 538 871.5 L 535 830.5 L 534 829.5 L 533 804.5 L 532 803.5 L 532 794.5 L 530 783.5 L 529 759.5 L 528 758.5 L 527 738.5 L 526 737.5 L 525 711.5 L 524 710.5 L 523 692.5 L 522 691.5 L 522 679.5 L 521 678.5 L 521 669.5 L 520 668.5 L 519 650.5 L 518 649.5 L 518 636.5 L 517 635.5 L 517 624.5 L 516 623.5 L 515 604.5 L 514 603.5 L 514 589.5 L 513 588.5 L 513 579.5 L 511 569.5 L 509 534.5 L 506 517.5 L 501.5 510 L 493.5 507 L 486.5 507 L 473.5 503 L 469.5 503 L 442.5 492 L 429.5 484 L 420.5 483 L 387.5 499 L 368.5 504 L 345.5 507 L 340 510.5 L 338 515.5 L 337 529.5 L 336 530.5 L 336 541.5 L 335 542.5 L 333 575.5 L 332 576.5 L 332 590.5 L 331 591.5 L 331 600.5 L 329 610.5 L 327 645.5 L 326 646.5 L 325 663.5 L 324 664.5 L 324 677.5 L 323 678.5 L 323 692.5 L 321 703.5 L 320 729.5 L 319 730.5 L 319 739.5 L 318 740.5 L 317 756.5 L 316 757.5 L 316 767.5 L 315 768.5 L 314 784.5 L 313 785.5 L 312 809.5 L 311 810.5 L 309 840.5 L 308 841.5 L 308 854.5 L 307 855.5 L 307 864.5 L 306 865.5 L 306 874.5 L 305 875.5 L 305 884.5 L 304 885.5 L 304 894.5 L 302 905.5 L 301 933.5 L 300 934.5 L 300 944.5 L 299 945.5 L 297 984.5 L 296 985.5 L 296 995.5 L 295 996.5 L 294 1017.5 L 293 1018.5 L 293 1030.5 L 292 1031.5 L 292 1041.5 L 291 1042.5 L 290 1063.5 L 289 1064.5 L 289 1079.5 L 288 1080.5 L 288 1095.5 L 287 1096.5 L 287 1128.5 L 282.5 1137 Q 278 1141.5 268.5 1141 L 240.5 1132 L 186.5 1104 L 141.5 1077 L 71.5 1031 L 56.5 1023 L 32.5 1007 L 23 998.5 Q 16.5 993 17 980.5 L 104 777.5 L 119 747.5 L 137 704.5 L 168 639.5 L 196 574.5 L 198 572.5 L 254 447.5 L 295 360.5 L 305 334.5 L 307 319.5 L 315 288.5 Q 325.3 267.3 340 250.5 L 341 244.5 L 337.5 240 L 318.5 232 Q 307.6 225.9 300 216.5 L 295 209.5 L 287 190.5 L 286 179.5 L 285 178.5 L 285 168.5 Q 291 132.5 313.5 113 Q 326.9 100.9 345.5 94 L 368.5 88 L 394.5 87 Q 400.3 85.8 403 81.5 L 408 73.5 L 409 58.5 L 405.5 53 L 403.5 52 L 390.5 52 L 385 48.5 L 382 38.5 L 384 28.5 L 387.5 25 L 394.5 23 L 403.5 23 L 407 20.5 Q 406.9 14.9 410.5 13 L 412.5 12 Z M 414 14 L 412 15 Q 408 18 408 24 L 405 26 L 390 26 L 385 32 Q 384 41 386 47 L 391 50 Q 401 49 408 51 L 410 55 Q 409 59 411 61 L 410 73 L 404 83 Q 402 88 396 89 L 375 89 L 350 94 L 330 103 L 313 115 L 302 129 L 293 145 L 291 154 L 288 160 L 288 168 L 287 169 L 288 189 L 293 203 L 303 218 L 320 231 L 338 238 L 342 244 L 341 252 Q 325 269 315 293 L 313 305 L 311 309 L 310 320 L 307 327 L 306 337 L 299 356 L 274 409 L 269 423 L 257 445 L 237 492 L 228 509 L 187 601 L 185 603 L 177 624 L 141 700 L 120 750 L 104 782 L 102 789 L 94 805 L 94 808 L 90 814 L 79 840 L 78 845 L 71 858 L 70 864 L 66 870 L 53 903 L 41 928 L 40 933 L 29 955 L 28 961 L 25 965 L 20 979 Q 18 992 24 997 L 36 1007 L 51 1017 L 93 1042 L 120 1061 L 122 1061 L 131 1068 L 167 1089 L 170 1092 L 174 1093 L 189 1103 L 236 1128 Q 242 1129 246 1132 L 254 1133 L 256 1135 Q 263 1135 268 1139 Q 276 1140 280 1137 L 285 1131 Q 284 1125 286 1124 L 286 1113 L 285 1112 L 286 1083 L 287 1082 L 287 1072 L 288 1071 L 288 1059 L 289 1058 L 290 1028 L 293 1011 L 293 994 L 294 993 L 295 977 L 296 976 L 297 945 L 298 944 L 299 928 L 300 927 L 301 896 L 304 882 L 305 855 L 307 845 L 308 823 L 308 821 L 309 820 L 310 802 L 311 801 L 312 778 L 315 763 L 317 729 L 319 722 L 320 689 L 323 672 L 324 645 L 327 628 L 328 603 L 331 586 L 332 552 L 335 535 L 335 520 L 339 510 L 344 506 L 353 505 L 357 503 L 372 502 Q 377 498 386 498 L 422 481 L 429 482 L 444 491 L 456 495 L 460 498 Q 467 498 472 502 L 483 503 L 502 508 L 506 513 L 510 528 L 511 553 L 513 562 L 513 571 L 514 572 L 515 601 L 518 617 L 519 641 L 521 651 L 521 659 L 522 660 L 523 686 L 526 703 L 527 732 L 529 743 L 529 753 L 530 754 L 530 766 L 531 767 L 532 783 L 533 784 L 534 811 L 536 821 L 536 830 L 537 831 L 538 858 L 541 872 L 541 883 L 542 884 L 542 894 L 543 895 L 543 905 L 544 906 L 544 919 L 545 920 L 545 932 L 547 941 L 547 950 L 548 951 L 549 982 L 551 991 L 551 999 L 552 1000 L 552 1020 L 553 1021 L 555 1046 L 556 1047 L 556 1067 L 556 1069 L 557 1070 L 558 1089 L 559 1090 L 560 1113 L 563 1121 L 563 1127 L 565 1133 L 574 1139 L 578 1139 L 593 1133 L 596 1133 L 614 1124 L 617 1121 L 661 1099 L 669 1093 L 683 1087 L 686 1084 L 690 1083 L 718 1067 L 738 1054 L 742 1053 L 796 1017 L 824 995 Q 829 991 831 985 L 831 977 L 828 970 L 801 919 L 801 916 L 798 912 L 797 907 L 794 903 L 782 874 L 778 868 L 777 863 L 774 859 L 773 854 L 767 843 L 755 814 L 746 797 L 739 778 L 709 713 L 707 706 L 685 661 L 679 645 L 672 632 L 671 627 L 668 623 L 647 575 L 638 558 L 633 544 L 600 474 L 580 427 L 542 347 L 535 323 L 534 312 L 531 299 Q 528 295 527 289 L 519 273 L 506 256 L 502 248 L 503 242 L 511 236 L 514 236 L 523 232 L 536 223 Q 547 214 553 201 L 557 190 L 558 176 L 559 175 L 559 165 L 558 164 L 557 151 L 549 133 L 537 116 L 521 103 L 501 94 L 478 89 L 449 89 L 441 85 L 434 73 L 433 68 Q 432 59 434 54 L 437 51 L 445 51 L 455 49 L 458 43 Q 459 34 457 30 L 454 26 L 440 26 L 438 25 Q 433 24 434 18 L 430 14 L 414 14 Z " /><path fill="rgb(245,245,245)" stroke="rgb(245,245,245)" stroke-width="1" opacity="0.9411764705882353" d="M 420.5 101 L 424.5 101 L 433.5 104 L 450 118.5 Q 458.9 129.6 464 144.5 L 467 155.5 L 468 178.5 L 467 179.5 L 466 192.5 L 463 200.5 Q 458.2 211.2 449.5 218 Q 443.3 224.8 432.5 227 L 409.5 227 Q 399.5 225.5 395 218.5 L 391 213.5 L 385 205.5 L 381 195.5 L 377 172.5 L 378 170.5 L 377 167.5 L 380 145.5 L 385 133.5 Q 393 120 404.5 110 L 412.5 104 L 420.5 101 Z M 421 103 L 405 112 Q 391 123 384 140 L 381 149 L 380 163 L 379 164 L 380 183 L 382 194 L 388 208 L 394 216 L 403 223 L 413 226 L 436 225 L 449 217 L 460 204 L 466 185 L 466 159 L 464 151 Q 459 132 448 119 L 435 107 L 426 103 L 421 103 Z " /><path fill="rgb(245,245,245)" stroke="rgb(245,245,245)" stroke-width="1" opacity="0.9411764705882353" d="M 361.5 111 Q 367.7 110.3 369 114.5 L 368 120.5 L 357 139.5 L 354 148.5 Q 355.3 156.8 353 161.5 L 354 162.5 L 355 188.5 L 366 217.5 L 363.5 221 L 358.5 222 L 346.5 218 L 332 209 Q 333.1 206.3 330.5 207 Q 320.6 199.4 316 186.5 L 314 175.5 L 314 163.5 L 315 160.5 L 315 154.5 L 319 143.5 Q 326.3 131.8 336.5 123 L 346.5 116 L 361.5 111 Z M 361 113 L 348 118 L 336 126 L 324 139 L 319 148 L 316 158 L 316 168 L 315 169 L 317 185 L 325 200 Q 337 214 357 220 Q 363 221 364 218 L 355 195 L 351 172 L 352 150 Q 357 132 367 119 L 367 116 Q 366 112 361 113 Z " /><path fill="rgb(245,245,245)" stroke="rgb(245,245,245)" stroke-width="1" opacity="0.9411764705882353" d="M 479.5 112 L 486.5 113 L 495.5 117 L 511.5 128 L 518 134.5 L 529 153.5 L 531 162.5 L 531 176.5 Q 527.8 195.8 515.5 206 L 504.5 213 Q 498 213.5 494.5 217 L 482.5 219 L 480 218 L 479 214.5 L 487 199.5 L 491 187.5 L 492 158.5 L 487 139.5 L 476 120.5 L 476 114.5 L 479.5 112 Z M 481 114 L 478 115 L 478 120 L 487 135 L 492 149 L 493 164 L 494 165 L 494 176 L 493 177 L 492 191 L 487 204 L 481 214 L 483 217 L 489 217 L 501 213 L 515 205 Q 527 195 530 176 L 529 160 Q 526 147 519 139 Q 506 120 481 114 Z " /><path fill="rgb(245,245,245)" stroke="rgb(245,245,245)" stroke-width="1" opacity="0.9411764705882353" d="M 379.5 246 L 405.5 246 L 411 249.5 L 412 251.5 L 412 264.5 L 405 281.5 L 399 290 Q 396.3 288.9 397 291.5 L 393 294 L 391.5 297 L 359.5 321 L 345.5 327 L 342 324.5 L 341 322.5 L 341 308.5 L 342 307.5 L 343 296.5 L 347 286.5 L 360 263.5 L 369.5 251 L 379.5 246 Z M 384 247 L 374 250 Q 353 271 343 304 L 343 323 L 346 325 L 351 324 L 360 319 L 386 300 L 403 282 L 407 275 L 411 261 L 410 252 L 406 248 L 384 247 Z " /><path fill="rgb(245,245,245)" stroke="rgb(245,245,245)" stroke-width="1" opacity="0.9411764705882353" d="M 453.5 246 L 466.5 247 L 475 252 Q 488.6 268.1 498 289.5 L 503 303.5 L 504 320.5 L 500.5 326 L 492.5 326 L 458 305 Q 459.1 302.3 456.5 303 L 450 295 L 447 293.5 L 439 282.5 Q 438.5 276 435 272.5 L 431 260.5 L 431 250.5 L 434.5 247 L 452.5 247 L 453.5 246 Z M 437 248 L 434 249 L 432 254 L 436 272 L 446 290 L 466 308 L 495 325 L 501 324 L 502 322 L 502 307 L 500 299 L 490 277 L 478 259 Q 474 251 466 248 L 437 248 Z " /><path fill="rgb(245,245,245)" stroke="rgb(245,245,245)" stroke-width="1" opacity="0.9411764705882353" d="M 417.5 302 Q 424.3 300.7 427.5 303 L 446.5 318 L 467.5 332 L 484.5 341 L 493 348.5 L 495 351.5 L 496 358.5 L 492 370.5 L 479.5 387 L 476.5 389 Q 460 404.5 440.5 417 L 429.5 422 L 418.5 423 L 415.5 422 L 409.5 421 L 398.5 415 Q 383.6 404.9 372 391.5 Q 372.8 389.3 370.5 390 L 351 368.5 L 348 361.5 L 348 354.5 L 355.5 345 L 377.5 328 L 417.5 302 Z M 419 303 L 381 328 L 356 347 L 350 354 L 350 363 L 353 369 L 363 381 L 392 408 L 405 417 L 417 421 Q 430 421 439 416 L 471 393 Q 486 381 494 362 Q 495 353 492 350 L 485 343 L 470 335 L 444 318 L 427 304 L 419 303 Z " /><path fill="rgb(245,245,245)" stroke="rgb(245,245,245)" stroke-width="1" opacity="0.9411764705882353" d="M 341.5 389 L 348 390 L 365 413 L 369 415.5 Q 368.3 417.8 370.5 417 L 372 420 L 386.5 432 L 393.5 436 L 407.5 442 L 416.5 444 L 424.5 444 L 442.5 439 L 450.5 435 L 467 423 Q 465.9 420.3 468.5 421 L 484 406.5 L 491 396 L 496.5 392 L 500.5 392 L 504 397.5 L 504 409.5 L 505 410.5 L 507 477.5 L 506 481 L 503.5 482 L 489.5 482 L 468.5 477 L 445.5 466 L 429.5 455 L 419.5 454 L 415.5 455 L 407.5 461 L 401.5 463 L 398.5 466 L 383.5 474 L 370.5 478 L 361.5 479 L 357.5 481 L 339.5 482 L 336 481 L 335 478.5 L 335 443.5 L 336 442.5 L 337 399.5 Q 339.2 398.2 338 393.5 L 341.5 389 Z M 343 391 L 339 397 L 337 479 L 341 481 L 354 480 L 382 473 L 405 461 L 413 455 L 419 453 L 431 454 Q 448 468 471 476 L 493 481 L 503 481 L 505 479 L 506 474 L 505 470 L 505 447 L 504 446 L 503 408 L 501 395 L 499 394 L 495 396 L 487 406 L 460 431 Q 447 440 430 445 Q 415 447 406 443 Q 389 437 377 426 Q 360 413 349 395 Q 348 390 343 391 Z " /><path fill="rgb(245,245,245)" stroke="rgb(245,245,245)" stroke-width="1" opacity="0.9411764705882353" d="M 309.5 401 L 314 404.5 L 314 426.5 L 313 427.5 L 313 442.5 L 312 443.5 L 311 467.5 L 310 468.5 L 310 489.5 L 309 490.5 L 309 499.5 L 307 509.5 L 306 547.5 L 305 548.5 Q 306.1 558.1 304 563 L 298.5 564 L 294 561 L 292 555.5 L 280 538.5 L 258 515.5 L 256 509.5 L 279 461.5 L 300 412.5 L 306.5 402 L 309.5 401 Z M 308 404 L 298 421 Q 280 466 258 508 Q 257 514 260 516 Q 281 533 294 558 L 301 562 L 303 559 L 304 554 L 306 498 L 307 497 L 308 476 L 309 475 L 311 430 L 312 429 L 312 407 Q 312 404 308 404 Z " /><path fill="rgb(245,245,245)" stroke="rgb(245,245,245)" stroke-width="1" opacity="0.9411764705882353" d="M 533.5 401 Q 538.8 399.8 540 402.5 L 578 486.5 L 588 504.5 L 589 510.5 L 580 523 L 578.5 523 L 570 531.5 L 568 534.5 L 567 537 Q 564.3 535.9 565 538.5 L 546.5 564 L 540 563 Q 537.7 555.5 539 542.5 L 538 541.5 L 539 539.5 L 538 538.5 L 538 515.5 L 537 514.5 L 537 504.5 L 536 503.5 L 536 490.5 L 535 489.5 L 535 466.5 L 534 465.5 L 534 451.5 L 533 450.5 L 533 438.5 L 532 437.5 L 531 404.5 L 533.5 401 Z M 536 403 L 533 406 L 533 422 L 534 423 L 534 436 L 535 437 L 535 458 L 536 459 L 536 475 L 537 476 L 537 492 L 538 493 L 538 506 L 539 507 L 540 547 L 541 548 Q 540 556 542 561 L 546 562 L 567 533 L 587 512 L 587 508 L 584 500 L 563 459 L 540 407 L 536 403 Z " /><path fill="rgb(245,245,245)" stroke="rgb(245,245,245)" stroke-width="1" opacity="0.9411764705882353" d="M 419.5 508 Q 437.8 506.7 444 517.5 Q 448.2 521.3 447 530.5 L 441.5 540 L 434.5 544 L 421.5 546 L 411.5 543 L 403 535.5 L 400 525.5 L 402 518.5 L 408.5 512 L 419.5 508 Z M 424 509 Q 422 511 418 510 L 409 514 Q 403 516 402 523 Q 401 532 405 536 L 412 541 L 422 544 L 433 543 L 441 539 L 445 532 Q 447 522 443 519 Q 437 510 424 509 Z " /><path fill="rgb(245,245,245)" stroke="rgb(245,245,245)" stroke-width="1" opacity="0.9411764705882353" d="M 244.5 541 Q 251.8 541.3 254 546.5 Q 273.6 571.4 286 603.5 L 291 620.5 L 295 642.5 L 295 659.5 L 288 690.5 L 278 719.5 L 262 749.5 L 240 778 Q 237.3 776.9 238 779.5 L 220.5 799 Q 218.3 798.3 219 800.5 L 173 850.5 Q 157 868.5 145 890.5 Q 133.5 909.5 127 933.5 L 124 949.5 L 124 957.5 L 123 958.5 L 123 982.5 L 124 983.5 L 124 993.5 L 128 1007.5 Q 135.6 1026.9 150.5 1039 L 167.5 1049 L 178.5 1052 L 189.5 1054 L 220.5 1054 L 239.5 1049 L 242.5 1046 L 251.5 1042 L 257.5 1042 L 260 1044.5 L 260 1057.5 L 259 1058.5 L 259 1065.5 L 257 1071.5 L 255 1089.5 L 252 1100.5 L 248.5 1104 L 240.5 1105 L 214.5 1093 L 146.5 1055 L 87.5 1014 L 58 991 L 56.5 988 L 55 988 L 55 986 Q 52.3 987.1 53 984.5 L 46 974.5 L 46 969.5 L 61 933.5 L 73 910.5 Q 89.7 886.7 111.5 868 L 200.5 793 L 233 760.5 L 255 731.5 L 268 705.5 L 275 678.5 L 275 653.5 L 270 636.5 Q 265.4 627.1 257.5 621 L 244.5 614 L 223.5 613 L 217.5 615 L 212.5 615 L 210 609.5 L 241 543 L 244.5 541 Z M 245 543 L 241 547 L 237 555 L 233 566 L 212 609 Q 211 612 214 613 L 228 612 L 229 611 Q 247 611 258 619 Q 266 626 271 636 L 276 651 L 276 659 L 277 660 L 276 685 L 272 700 L 264 720 L 242 753 L 228 768 Q 229 770 227 769 L 223 774 L 177 816 L 113 869 Q 90 888 74 913 Q 59 939 48 969 L 48 975 L 51 981 Q 63 995 80 1006 L 138 1047 L 194 1080 L 241 1103 Q 247 1104 249 1102 L 253 1091 L 256 1067 L 259 1054 L 258 1046 L 255 1043 L 233 1053 L 216 1056 L 209 1056 L 208 1057 L 189 1056 L 169 1051 Q 156 1047 148 1039 L 137 1028 L 128 1012 L 123 997 L 122 983 L 121 982 L 122 951 L 125 934 L 132 914 L 141 895 Q 152 874 166 857 L 242 773 L 262 747 L 274 724 L 284 699 L 290 678 L 292 660 L 293 659 L 292 635 L 286 608 L 272 577 L 256 552 L 248 543 L 245 543 Z " /><path fill="rgb(245,245,245)" stroke="rgb(245,245,245)" stroke-width="1" opacity="0.9411764705882353" d="M 597.5 541 Q 603.3 540.2 605 543.5 L 635 611.5 L 632.5 615 Q 625.8 615.7 622.5 613 L 609.5 613 L 594.5 617 L 586 622 L 584.5 625 L 582 626.5 L 574 639.5 L 571 648.5 L 570 653.5 L 570 681.5 Q 575.8 707.2 587 727.5 L 601 748.5 L 617.5 767 L 623 771.5 L 625.5 775 L 628 776.5 L 633.5 783 L 646 793 Q 644.9 795.7 647.5 795 L 673 816.5 Q 672.3 818.8 674.5 818 L 751 884.5 L 770 906.5 L 795 958.5 L 800 974.5 L 798 980 Q 795.3 978.9 796 981.5 L 774.5 1001 L 715.5 1044 L 697.5 1055 L 693.5 1056 L 670.5 1071 Q 648.5 1080.5 629.5 1093 L 602.5 1106 L 597.5 1106 L 594 1103.5 L 590 1089.5 L 590 1082.5 L 589 1081.5 L 585 1047.5 L 587.5 1043 L 592.5 1042 L 600.5 1046 L 603.5 1046 L 607.5 1049 L 621.5 1053 L 654.5 1054 L 673.5 1050 L 684.5 1045 Q 697.6 1037.1 707 1025.5 L 719 1003.5 L 719 998.5 L 722 988.5 L 722 963.5 L 719 947.5 L 719 940.5 L 715 926.5 L 703 897.5 L 692 878.5 L 662 839.5 L 602 774.5 L 586 754.5 L 574 734.5 L 561 706.5 L 553 680.5 L 553 672.5 L 550 659.5 L 550 637.5 L 553 626.5 L 554 615.5 L 566 584.5 Q 578.4 560.9 595.5 542 L 597.5 541 Z M 598 543 L 595 544 L 574 574 L 564 593 L 555 619 L 553 637 L 552 638 L 552 661 L 554 669 L 554 677 L 563 707 L 575 733 L 591 759 L 619 792 L 665 841 Q 682 859 695 881 L 708 905 L 715 922 L 720 939 L 724 962 L 724 990 L 720 1006 Q 713 1022 702 1034 Q 692 1044 678 1050 L 666 1054 L 652 1055 L 651 1056 L 632 1056 L 631 1055 L 619 1054 Q 605 1051 596 1045 L 590 1044 L 587 1048 L 592 1091 L 594 1100 L 598 1104 L 603 1104 L 634 1089 L 713 1044 Q 751 1018 787 989 L 798 976 L 798 972 L 794 961 L 778 926 L 769 909 L 761 898 L 738 874 L 640 791 Q 609 765 587 732 L 572 698 L 568 682 L 568 656 L 570 646 Q 574 632 584 623 Q 586 624 585 621 Q 593 615 606 612 L 625 612 L 626 613 Q 632 614 633 611 L 604 546 Q 603 542 598 543 Z " /><path fill="rgb(245,245,245)" stroke="rgb(245,245,245)" stroke-width="1" opacity="0.9411764705882353" d="M 414.5 561 L 430.5 561 L 441 567.5 Q 447 572.5 445 585.5 L 436.5 596 L 426.5 600 L 416.5 600 Q 406.1 597.9 401 590.5 Q 396.3 585.7 398 574.5 L 404.5 565 L 409.5 562 L 414.5 561 Z M 417 562 L 406 566 L 399 576 L 399 584 L 406 593 Q 408 592 407 595 L 419 598 Q 433 599 440 591 L 444 584 L 443 573 L 436 565 L 432 563 Q 426 561 417 562 Z " /><path fill="rgb(245,245,245)" stroke="rgb(245,245,245)" stroke-width="1" opacity="0.9411764705882353" d="M 419.5 614 L 435.5 617 L 443 624.5 L 445 634.5 Q 442.9 644.4 435.5 649 L 429.5 652 L 416.5 653 Q 405.3 650.3 399 642.5 Q 396.1 637.9 397 629.5 L 401.5 621 L 406.5 617 L 419.5 614 Z M 419 616 L 410 618 L 407 618 Q 408 621 406 620 L 399 628 Q 397 638 401 643 Q 407 649 418 651 Q 431 652 437 646 L 443 637 Q 445 628 441 625 L 432 617 L 419 616 Z " /><path fill="rgb(245,245,245)" stroke="rgb(245,245,245)" stroke-width="1" opacity="0.9411764705882353" d="M 610.5 636 L 618.5 636 L 627.5 639 L 636.5 643 L 648 651 L 648 653 Q 650.7 651.9 650 654.5 Q 657.4 659.6 657 672.5 Q 655.9 679.9 650.5 683 Q 645.8 686.3 636.5 685 L 631.5 684 L 620.5 677 L 614.5 677 Q 609.8 680.3 610 688.5 Q 611.8 695.7 617.5 699 L 633.5 706 L 648.5 707 L 671.5 699 L 677 702.5 L 703 762.5 L 728 813.5 Q 728.5 820 732 823.5 L 732 828.5 Q 730.8 831.3 725.5 830 Q 688.8 801.8 655 770.5 L 655 769 L 653 769 Q 654.1 766.3 651.5 767 Q 626.3 744.3 608 714.5 L 598 691.5 L 598 686.5 L 595 676.5 L 595 660.5 Q 597.1 647.1 604.5 639 L 610.5 636 Z M 611 638 L 608 639 L 600 649 L 597 661 L 597 678 L 598 679 L 599 690 L 608 712 Q 626 743 653 766 Q 655 765 654 768 L 656 768 L 684 794 L 726 828 Q 729 829 730 827 L 726 814 L 698 756 L 675 704 L 672 701 L 652 708 Q 646 707 645 709 L 631 707 L 612 697 L 608 688 L 610 680 L 615 675 L 620 675 L 638 684 L 644 684 L 650 682 L 655 674 Q 656 663 651 658 Q 644 649 635 644 L 619 638 L 611 638 Z " /><path fill="rgb(245,245,245)" stroke="rgb(245,245,245)" stroke-width="1" opacity="0.9411764705882353" d="M 224.5 637 Q 238.8 634.7 243 642.5 L 246 647.5 L 249 657.5 L 249 682.5 L 244 700.5 L 237 714.5 L 211 749 L 208 750.5 L 200 761 L 181 777 Q 182.1 779.7 179.5 779 Q 161.6 796.5 141 810 Q 142.1 812.7 139.5 812 L 121.5 828 L 117.5 829 L 115 828 L 114 821.5 L 130 789.5 L 142 760.5 L 146 754.5 L 147 749.5 L 159 726.5 L 159 723.5 L 162 719.5 L 167 704.5 L 171.5 699 L 177.5 699 L 195.5 707 L 205.5 708 Q 207 705.5 212.5 707 L 229 696.5 L 234 688.5 L 234 685.5 Q 232.8 679.8 228.5 677 L 223.5 677 L 211.5 685 L 199.5 685 L 191 678.5 L 189 674.5 L 189 661.5 Q 192.1 653.1 198.5 648 L 205.5 644 L 224.5 637 Z M 230 638 Q 213 641 201 649 Q 193 654 190 664 Q 189 672 191 677 L 201 684 L 213 683 L 225 675 L 231 676 L 235 684 Q 236 691 233 695 Q 225 705 210 709 L 197 709 L 185 705 L 179 701 L 173 701 L 167 710 L 139 774 L 116 821 L 116 826 L 123 825 L 183 775 Q 210 750 232 720 L 243 699 L 248 677 L 248 667 L 247 666 L 246 654 L 241 643 Q 238 638 230 638 Z " /><path fill="rgb(245,245,245)" stroke="rgb(245,245,245)" stroke-width="1" opacity="0.9411764705882353" d="M 415.5 668 Q 435 667 442 678.5 Q 445 682.5 444 690.5 Q 442.9 697.9 437.5 701 Q 430.2 706.2 418.5 707 L 404.5 702 L 399 696.5 L 396 689.5 L 396 685.5 Q 397.8 676.3 404.5 672 L 415.5 668 Z M 417 670 L 406 673 Q 399 676 398 684 Q 397 694 402 698 L 413 704 L 418 705 Q 430 705 438 699 L 442 692 Q 444 681 439 678 Q 436 673 430 671 L 417 670 Z " /><path fill="rgb(245,245,245)" stroke="rgb(245,245,245)" stroke-width="1" opacity="0.9411764705882353" d="M 416.5 721 L 430.5 722 L 441 729.5 L 443 732.5 L 444 742.5 Q 442.9 749.9 437.5 753 L 426.5 759 L 414.5 759 L 405.5 755 L 400 750.5 Q 395.5 746 397 735.5 L 402.5 726 L 407.5 723 L 416.5 721 Z M 412 723 L 402 728 L 398 738 L 399 747 L 409 755 L 418 758 L 432 755 L 438 751 L 442 745 Q 444 734 439 730 L 430 723 L 412 723 Z " /><path fill="rgb(245,245,245)" stroke="rgb(245,245,245)" stroke-width="1" opacity="0.9411764705882353" d="M 281.5 759 Q 287.5 757.5 289 760.5 Q 291.3 765.3 290 773.5 L 289 774.5 L 288 795.5 L 287 796.5 L 286 812.5 L 285 813.5 L 284 833.5 L 283 834.5 L 282 850.5 L 281 851.5 L 281 863.5 L 280 864.5 L 280 874.5 L 279 875.5 L 278 895.5 L 277 896.5 L 277 911.5 Q 274.8 912.8 276 917.5 L 273.5 922 L 267.5 922 L 261.5 918 L 250.5 914 L 235.5 913 Q 214.6 916.6 204 930.5 L 196 943.5 L 194 950.5 L 194 956.5 L 196.5 960 L 204.5 961 L 219 952 Q 217.9 949.3 220.5 950 L 232.5 942 L 243.5 939 L 248.5 939 L 259 945.5 L 266 957.5 L 271 977.5 L 271 979.5 L 271 984.5 L 267 997.5 L 257 1013 L 246.5 1021 L 228.5 1029 L 221.5 1029 L 210.5 1032 L 197.5 1032 L 179.5 1028 L 167.5 1021 L 162 1015.5 Q 154.6 1005.9 151 992.5 L 150 963.5 L 151 962.5 L 151 951.5 L 153 940.5 L 159 921.5 L 173 894.5 L 193 867 Q 195.7 868.1 195 865.5 L 209 848 L 212 846.5 L 228.5 827 Q 230.8 827.8 230 825.5 L 235 819 L 238 817.5 L 263 787.5 L 281.5 759 Z M 283 761 L 258 797 L 199 863 L 176 893 L 158 929 L 154 943 L 153 957 L 152 958 L 152 988 L 153 993 L 156 1003 L 164 1016 Q 171 1023 182 1027 L 192 1029 L 199 1029 L 200 1030 L 210 1030 L 211 1029 L 225 1028 Q 239 1024 250 1017 L 262 1004 L 266 997 L 268 989 Q 270 963 260 950 L 250 941 L 238 942 Q 222 949 211 960 L 202 963 Q 194 963 192 958 Q 191 949 194 945 L 201 932 Q 209 922 220 916 L 234 912 L 252 913 L 270 921 L 273 920 L 274 919 L 275 905 L 276 904 L 276 892 L 277 891 L 277 878 L 278 877 L 279 857 L 280 856 L 280 845 L 281 844 L 281 835 L 282 834 L 284 810 L 285 809 L 287 783 L 288 782 L 288 764 Q 287 760 283 761 Z " /><path fill="rgb(245,245,245)" stroke="rgb(245,245,245)" stroke-width="1" opacity="0.9411764705882353" d="M 558.5 759 Q 564.1 759.5 566 763.5 L 587 793.5 L 606 816.5 L 621 831.5 L 656 871.5 L 672 895.5 L 683 916.5 L 689 936.5 L 691 939.5 L 694 963.5 L 695 964.5 L 695 985.5 L 691 1001.5 Q 687.1 1011.6 679.5 1018 Q 671.6 1025.1 660.5 1029 L 655.5 1029 L 649.5 1032 L 634.5 1032 Q 626.5 1028.5 615.5 1028 Q 611.7 1024.3 604.5 1024 Q 592.3 1019.3 585 1009.5 L 580 1001.5 L 576 990.5 Q 573.7 983.8 575 973.5 L 580 955.5 Q 583.2 946.2 590.5 941 Q 594.8 937.3 604.5 939 L 614.5 943 L 636.5 960 L 647.5 961 L 651 958.5 L 648 944.5 Q 643.2 932.8 634.5 925 L 622.5 917 L 616.5 915 Q 608.6 912.4 596.5 914 L 583.5 918 L 577.5 922 L 571 922 L 569 917.5 Q 570.7 911.3 568 909.5 L 568 893.5 L 566 883.5 L 565 857.5 L 564 856.5 L 564 849.5 L 562 841.5 L 562 831.5 L 561 830.5 L 561 814.5 L 558 799.5 L 556 763.5 L 558.5 759 Z M 558 762 L 558 778 L 559 779 L 559 789 L 561 800 L 562 819 L 563 820 L 563 829 L 564 830 L 564 839 L 565 840 L 568 887 L 569 888 L 569 905 L 570 906 L 570 914 L 572 920 L 575 921 L 595 913 L 615 913 L 619 914 L 635 923 Q 645 931 650 945 Q 653 950 652 960 L 646 964 L 634 960 L 615 945 L 601 940 L 592 942 L 583 953 L 577 972 Q 576 983 578 991 Q 581 1003 588 1011 Q 595 1019 607 1023 L 623 1028 L 641 1029 L 642 1030 L 659 1028 L 672 1022 L 679 1017 L 687 1007 L 691 997 L 693 987 L 693 963 L 692 962 L 691 948 L 684 924 L 679 912 L 657 876 L 618 832 Q 619 829 617 830 L 585 794 L 567 768 L 562 762 L 558 762 Z " /><path fill="rgb(245,245,245)" stroke="rgb(245,245,245)" stroke-width="1" opacity="0.9411764705882353" d="M 416.5 774 L 430.5 776 L 439 782.5 L 443 790.5 L 443 795.5 Q 440.5 804.5 433.5 809 L 426.5 812 L 415.5 813 L 405.5 810 L 396 801.5 L 394 791.5 Q 395.5 784 400.5 780 L 404.5 777 L 416.5 774 Z M 420 776 L 419 777 L 409 777 L 402 781 L 399 784 L 396 792 L 398 802 L 409 810 L 413 811 Q 427 813 434 807 Q 439 803 441 797 L 441 791 L 437 782 L 430 777 Q 423 778 420 776 Z " /><path fill="rgb(245,245,245)" stroke="rgb(245,245,245)" stroke-width="1" opacity="0.9411764705882353" d="M 417.5 826 L 429.5 828 L 439 835.5 Q 443.5 840 442 850.5 Q 439.8 857.3 434.5 861 Q 427.9 865.9 416.5 866 L 405.5 863 L 399 859 L 394 849.5 L 394 842.5 L 400.5 832 L 404.5 829 L 417.5 826 Z M 416 828 Q 414 831 409 829 L 402 833 L 396 842 Q 395 851 398 855 L 404 860 L 417 864 L 418 863 L 427 863 L 434 859 L 440 851 Q 442 840 437 836 L 429 829 L 416 828 Z " /><path fill="rgb(245,245,245)" stroke="rgb(245,245,245)" stroke-width="1" opacity="0.9411764705882353" d="M 417.5 879 L 420.5 880 L 427.5 880 Q 434.9 882.6 439 888.5 Q 442.9 892.6 442 901.5 Q 439.9 909.4 433.5 913 Q 427.3 918.3 415.5 918 L 401.5 913 L 396 907.5 Q 392.5 903.5 394 894.5 Q 396.3 887.8 401.5 884 L 409.5 880 Q 415.8 881.7 417.5 879 Z M 411 881 L 403 885 Q 397 889 395 898 Q 395 905 399 909 L 414 916 L 422 916 L 433 912 Q 438 909 440 903 Q 441 894 438 890 Q 434 884 426 881 L 411 881 Z " /><path fill="rgb(245,245,245)" stroke="rgb(245,245,245)" stroke-width="1" opacity="0.9411764705882353" d="M 411.5 935 L 427.5 935 Q 434.9 937.1 439 942.5 Q 444 946.5 443 956.5 Q 440.6 965.1 433.5 969 L 422.5 973 L 414.5 973 Q 404 970.5 398 963.5 Q 393.1 959.4 395 948.5 L 403.5 938 L 411.5 935 Z M 414 936 L 404 940 L 399 945 L 396 952 L 396 956 L 399 963 L 408 969 L 419 971 L 430 969 L 436 965 Q 441 961 442 954 L 440 947 L 437 943 Q 430 934 414 936 Z " /><path fill="rgb(245,245,245)" stroke="rgb(245,245,245)" stroke-width="1" opacity="0.9411764705882353" d="M 411.5 979 L 436.5 980 L 444 985.5 L 445 988.5 L 445 1006.5 L 448.5 1011 Q 461.2 1009.3 469.5 1012 L 470.5 1011 L 478.5 1011 L 479.5 1012 L 490.5 1013 L 501 1019.5 Q 507 1028.5 505 1045.5 Q 503.9 1052.9 498.5 1056 L 489.5 1059 L 448.5 1059 L 445 1062.5 L 445 1112.5 L 446 1113.5 L 446 1131.5 L 447 1132.5 L 447 1153.5 L 441.5 1161 L 439.5 1162 L 407.5 1162 L 403.5 1161 L 399 1156.5 L 398 1154.5 L 398 1062.5 L 397 1060 L 394.5 1059 L 357.5 1059 L 352.5 1058 L 344 1052.5 Q 337 1045.5 338 1030.5 L 340 1022.5 L 346.5 1015 L 353.5 1012 Q 359 1013.5 360.5 1011 L 395.5 1011 L 398 1008.5 L 399 1006.5 L 399 986.5 L 403.5 981 L 411.5 979 Z M 411 982 Q 409 985 404 983 L 401 986 L 400 990 L 401 992 L 401 1004 Q 399 1005 400 1010 L 398 1013 L 389 1014 L 386 1013 L 368 1013 L 367 1014 L 365 1013 L 363 1013 L 352 1014 L 347 1017 L 341 1025 L 341 1044 L 342 1048 L 346 1053 L 355 1057 L 397 1057 L 400 1062 L 400 1140 L 399 1142 L 399 1144 Q 398 1152 401 1157 L 405 1159 L 441 1159 L 444 1155 L 443 1061 L 448 1057 L 484 1057 L 485 1058 L 486 1057 L 494 1057 L 498 1055 L 503 1048 Q 502 1043 504 1042 L 503 1040 L 503 1029 L 499 1020 L 489 1014 L 484 1013 L 459 1013 L 455 1014 L 453 1014 Q 451 1012 447 1013 L 443 1008 L 443 987 L 437 982 L 411 982 Z " /><path fill="rgb(254,254,254)" stroke="rgb(254,254,254)" stroke-width="1" opacity="0.996078431372549" d="M 413.5 14 L 429.5 14 L 434 17.5 Q 433 24 437.5 25 L 439.5 26 L 453.5 26 L 457 29.5 Q 459.3 34.2 458 42.5 L 455 49 L 444.5 51 L 436.5 51 L 434 53.5 Q 431.6 58.6 433 67.5 L 434 72.5 L 441 85 L 448.5 89 L 477.5 89 L 500.5 94 L 520.5 103 L 537 116 L 549 132.5 L 557 150.5 L 558 163.5 L 559 164.5 L 559 174.5 L 558 175.5 L 557 189.5 L 553 200.5 Q 546.6 214.1 535.5 223 L 522.5 232 L 513.5 236 L 510.5 236 L 503 241.5 L 502 247.5 L 506 255.5 L 519 272.5 L 527 288.5 Q 527.5 295 531 298.5 L 534 311.5 L 535 322.5 L 542 346.5 L 580 426.5 L 600 473.5 L 633 543.5 L 638 557.5 L 647 574.5 L 668 622.5 L 671 626.5 L 672 631.5 L 679 644.5 L 685 660.5 L 707 705.5 L 709 712.5 L 739 777.5 L 746 796.5 L 755 813.5 L 767 842.5 L 773 853.5 L 774 858.5 L 777 862.5 L 778 867.5 L 782 873.5 L 794 902.5 L 797 906.5 L 798 911.5 L 801 915.5 L 801 918.5 L 828 969.5 L 831 976.5 L 831 984.5 Q 828.8 991.3 823.5 995 L 795.5 1017 L 741.5 1053 L 737.5 1054 L 717.5 1067 L 689.5 1083 L 685.5 1084 L 682.5 1087 L 668.5 1093 L 660.5 1099 L 616.5 1121 L 613.5 1124 L 595.5 1133 L 592.5 1133 L 577.5 1139 L 573.5 1139 L 565 1132.5 L 563 1126.5 L 563 1120.5 L 560 1112.5 L 559 1089.5 L 558 1088.5 L 557 1069.5 L 556 1068.5 L 556 1066.5 L 556 1046.5 L 555 1045.5 L 553 1020.5 L 552 1019.5 L 552 999.5 L 551 998.5 L 551 990.5 L 549 981.5 L 548 950.5 L 547 949.5 L 547 940.5 L 545 931.5 L 545 919.5 L 544 918.5 L 544 905.5 L 543 904.5 L 543 894.5 L 542 893.5 L 542 883.5 L 541 882.5 L 541 871.5 L 538 857.5 L 537 830.5 L 536 829.5 L 536 820.5 L 534 810.5 L 533 783.5 L 532 782.5 L 531 766.5 L 530 765.5 L 530 753.5 L 529 752.5 L 529 742.5 L 527 731.5 L 526 702.5 L 523 685.5 L 522 659.5 L 521 658.5 L 521 650.5 L 519 640.5 L 518 616.5 L 515 600.5 L 514 571.5 L 513 570.5 L 513 561.5 L 511 552.5 L 510 527.5 L 506 512.5 L 501.5 508 L 482.5 503 L 471.5 502 Q 467 498.5 459.5 498 L 455.5 495 L 443.5 491 L 428.5 482 L 421.5 481 L 385.5 498 Q 376.9 498.4 371.5 502 L 356.5 503 L 352.5 505 L 343.5 506 L 339 509.5 L 335 519.5 L 335 534.5 L 332 551.5 L 331 585.5 L 328 602.5 L 327 627.5 L 324 644.5 L 323 671.5 L 320 688.5 L 319 721.5 L 317 728.5 L 315 762.5 L 312 777.5 L 311 800.5 L 310 801.5 L 309 819.5 L 308 820.5 L 308 822.5 L 307 844.5 L 305 854.5 L 304 881.5 L 301 895.5 L 300 926.5 L 299 927.5 L 298 943.5 L 297 944.5 L 296 975.5 L 295 976.5 L 294 992.5 L 293 993.5 L 293 1010.5 L 290 1027.5 L 289 1057.5 L 288 1058.5 L 288 1070.5 L 287 1071.5 L 287 1081.5 L 286 1082.5 L 285 1111.5 L 286 1112.5 L 286 1123.5 Q 283.5 1125 285 1130.5 L 279.5 1137 Q 275.5 1140 267.5 1139 Q 263.2 1135.3 255.5 1135 L 253.5 1133 L 245.5 1132 Q 242 1128.5 235.5 1128 L 188.5 1103 L 173.5 1093 L 169.5 1092 L 166.5 1089 L 130.5 1068 L 121.5 1061 L 119.5 1061 L 92.5 1042 L 50.5 1017 L 35.5 1007 L 24 996.5 Q 18 991.5 20 978.5 L 25 964.5 L 28 960.5 L 29 954.5 L 40 932.5 L 41 927.5 L 53 902.5 L 66 869.5 L 70 863.5 L 71 857.5 L 78 844.5 L 79 839.5 L 90 813.5 L 94 807.5 L 94 804.5 L 102 788.5 L 104 781.5 L 120 749.5 L 141 699.5 L 177 623.5 L 185 602.5 L 187 600.5 L 228 508.5 L 237 491.5 L 257 444.5 L 269 422.5 L 274 408.5 L 299 355.5 L 306 336.5 L 307 326.5 L 310 319.5 L 311 308.5 L 313 304.5 L 315 292.5 Q 325.2 269.2 341 251.5 L 342 243.5 L 337.5 238 L 319.5 231 L 303 217.5 L 293 202.5 L 288 188.5 L 287 168.5 L 288 167.5 L 288 159.5 L 291 153.5 L 293 144.5 L 302 128.5 L 313 115 L 329.5 103 L 349.5 94 L 374.5 89 L 395.5 89 Q 401.6 87.6 404 82.5 L 410 72.5 L 411 60.5 Q 408.7 59.3 410 54.5 L 407.5 51 Q 400.8 48.7 390.5 50 L 386 46.5 Q 383.5 41 385 31.5 L 389.5 26 L 404.5 26 L 408 23.5 Q 408.3 17.8 411.5 15 L 413.5 14 Z M 421 101 L 413 104 L 405 110 Q 393 120 385 134 L 380 146 L 377 168 L 378 171 L 377 173 L 381 196 L 385 206 L 391 214 L 395 219 Q 399 226 410 227 L 433 227 Q 443 225 450 218 Q 458 211 463 201 L 466 193 L 467 180 L 468 179 L 467 156 L 464 145 Q 459 130 450 119 L 434 104 L 425 101 L 421 101 Z M 362 111 L 347 116 L 337 123 Q 326 132 319 144 L 315 155 L 315 161 L 314 164 L 314 176 L 316 187 Q 321 199 331 207 Q 333 206 332 209 L 347 218 L 359 222 L 364 221 L 366 218 L 355 189 L 354 163 L 353 162 Q 355 157 354 149 L 357 140 L 368 121 L 369 115 Q 368 110 362 111 Z M 480 112 L 476 115 L 476 121 L 487 140 L 492 159 L 491 188 L 487 200 L 479 215 L 480 218 L 483 219 L 495 217 Q 498 214 505 213 L 516 206 Q 528 196 531 177 L 531 163 L 529 154 L 518 135 L 512 128 L 496 117 L 487 113 L 480 112 Z M 380 246 L 370 251 L 360 264 L 347 287 L 343 297 L 342 308 L 341 309 L 341 323 L 342 325 L 346 327 L 360 321 L 392 297 L 393 294 L 397 292 Q 396 289 399 290 L 405 282 L 412 265 L 412 252 L 411 250 L 406 246 L 380 246 Z M 454 246 L 453 247 L 435 247 L 431 251 L 431 261 L 435 273 Q 438 276 439 283 L 447 294 L 450 295 L 457 303 Q 459 302 458 305 L 493 326 L 501 326 L 504 321 L 503 304 L 498 290 Q 489 268 475 252 L 467 247 L 454 246 Z M 418 302 L 378 328 L 356 345 L 348 355 L 348 362 L 351 369 L 371 390 Q 373 389 372 392 Q 384 405 399 415 L 410 421 L 416 422 L 419 423 L 430 422 L 441 417 Q 460 405 477 389 L 480 387 L 492 371 L 496 359 L 495 352 L 493 349 L 485 341 L 468 332 L 447 318 L 428 303 Q 424 301 418 302 Z M 342 389 L 338 394 Q 339 398 337 400 L 336 443 L 335 444 L 335 479 L 336 481 L 340 482 L 358 481 L 362 479 L 371 478 L 384 474 L 399 466 L 402 463 L 408 461 L 416 455 L 420 454 L 430 455 L 446 466 L 469 477 L 490 482 L 504 482 L 506 481 L 507 478 L 505 411 L 504 410 L 504 398 L 501 392 L 497 392 L 491 396 L 484 407 L 469 421 Q 466 420 467 423 L 451 435 L 443 439 L 425 444 L 417 444 L 408 442 L 394 436 L 387 432 L 372 420 L 371 417 Q 368 418 369 416 L 365 413 L 348 390 L 342 389 Z M 310 401 L 307 402 L 300 413 L 279 462 L 256 510 L 258 516 L 280 539 L 292 556 L 294 561 L 299 564 L 304 563 Q 306 558 305 549 L 306 548 L 307 510 L 309 500 L 309 491 L 310 490 L 310 469 L 311 468 L 312 444 L 313 443 L 313 428 L 314 427 L 314 405 L 310 401 Z M 534 401 L 531 405 L 532 438 L 533 439 L 533 451 L 534 452 L 534 466 L 535 467 L 535 490 L 536 491 L 536 504 L 537 505 L 537 515 L 538 516 L 538 539 L 539 540 L 538 542 L 539 543 Q 538 556 540 563 L 547 564 L 565 539 Q 564 536 567 537 L 568 535 L 570 532 L 579 523 L 580 523 L 589 511 L 588 505 L 578 487 L 540 403 Q 539 400 534 401 Z M 245 541 L 241 543 L 210 610 L 213 615 L 218 615 L 224 613 L 245 614 L 258 621 Q 265 627 270 637 L 275 654 L 275 679 L 268 706 L 255 732 L 233 761 L 201 793 L 112 868 Q 90 887 73 911 L 61 934 L 46 970 L 46 975 L 53 985 Q 52 987 55 986 L 55 988 L 57 988 L 58 991 L 88 1014 L 147 1055 L 215 1093 L 241 1105 L 249 1104 L 252 1101 L 255 1090 L 257 1072 L 259 1066 L 259 1059 L 260 1058 L 260 1045 L 258 1042 L 252 1042 L 243 1046 L 240 1049 L 221 1054 L 190 1054 L 179 1052 L 168 1049 L 151 1039 Q 136 1027 128 1008 L 124 994 L 124 984 L 123 983 L 123 959 L 124 958 L 124 950 L 127 934 Q 133 909 145 891 Q 157 869 173 851 L 219 801 Q 218 798 221 799 L 238 780 Q 237 777 240 778 L 262 750 L 278 720 L 288 691 L 295 660 L 295 643 L 291 621 L 286 604 Q 274 571 254 547 Q 252 541 245 541 Z M 598 541 L 596 542 Q 578 561 566 585 L 554 616 L 553 627 L 550 638 L 550 660 L 553 673 L 553 681 L 561 707 L 574 735 L 586 755 L 602 775 L 662 840 L 692 879 L 703 898 L 715 927 L 719 941 L 719 948 L 722 964 L 722 989 L 719 999 L 719 1004 L 707 1026 Q 698 1037 685 1045 L 674 1050 L 655 1054 L 622 1053 L 608 1049 L 604 1046 L 601 1046 L 593 1042 L 588 1043 L 585 1048 L 589 1082 L 590 1083 L 590 1090 L 594 1104 L 598 1106 L 603 1106 L 630 1093 Q 648 1080 671 1071 L 694 1056 L 698 1055 L 716 1044 L 775 1001 L 796 982 Q 795 979 798 980 L 800 975 L 795 959 L 770 907 L 751 885 L 675 818 Q 672 819 673 817 L 648 795 Q 645 796 646 793 L 634 783 L 628 777 L 626 775 L 623 772 L 618 767 L 601 749 L 587 728 Q 576 707 570 682 L 570 654 L 571 649 L 574 640 L 582 627 L 585 625 L 586 622 L 595 617 L 610 613 L 623 613 Q 626 616 633 615 L 635 612 L 605 544 Q 603 540 598 541 Z M 611 636 L 605 639 Q 597 647 595 661 L 595 677 L 598 687 L 598 692 L 608 715 Q 626 744 652 767 Q 654 766 653 769 L 655 769 L 655 771 Q 689 802 726 830 Q 731 831 732 829 L 732 824 Q 729 820 728 814 L 703 763 L 677 703 L 672 699 L 649 707 L 634 706 L 618 699 Q 612 696 610 689 Q 610 680 615 677 L 621 677 L 632 684 L 637 685 Q 646 686 651 683 Q 656 680 657 673 Q 657 660 650 655 Q 651 652 648 653 L 648 651 L 637 643 L 628 639 L 619 636 L 611 636 Z M 225 637 L 206 644 L 199 648 Q 192 653 189 662 L 189 675 L 191 679 L 200 685 L 212 685 L 224 677 L 229 677 Q 233 680 234 686 L 234 689 L 229 697 L 213 707 Q 207 706 206 708 L 196 707 L 178 699 L 172 699 L 167 705 L 162 720 L 159 724 L 159 727 L 147 750 L 146 755 L 142 761 L 130 790 L 114 822 L 115 828 L 118 829 L 122 828 L 140 812 Q 142 813 141 810 Q 162 797 180 779 Q 182 780 181 777 L 200 761 L 208 751 L 211 749 L 237 715 L 244 701 L 249 683 L 249 658 L 246 648 L 243 643 Q 239 635 225 637 Z M 282 759 L 263 788 L 238 818 L 235 819 L 230 826 Q 231 828 229 827 L 212 847 L 209 848 L 195 866 Q 196 868 193 867 L 173 895 L 159 922 L 153 941 L 151 952 L 151 963 L 150 964 L 151 993 Q 155 1006 162 1016 L 168 1021 L 180 1028 L 198 1032 L 211 1032 L 222 1029 L 229 1029 L 247 1021 L 257 1013 L 267 998 L 271 985 L 271 980 L 271 978 L 266 958 L 259 946 L 249 939 L 244 939 L 233 942 L 221 950 Q 218 949 219 952 L 205 961 L 197 960 L 194 957 L 194 951 L 196 944 L 204 931 Q 215 917 236 913 L 251 914 L 262 918 L 268 922 L 274 922 L 276 918 Q 275 913 277 912 L 277 897 L 278 896 L 279 876 L 280 875 L 280 865 L 281 864 L 281 852 L 282 851 L 283 835 L 284 834 L 285 814 L 286 813 L 287 797 L 288 796 L 289 775 L 290 774 Q 291 765 289 761 Q 288 757 282 759 Z M 559 759 L 556 764 L 558 800 L 561 815 L 561 831 L 562 832 L 562 842 L 564 850 L 564 857 L 565 858 L 566 884 L 568 894 L 568 910 Q 571 911 569 918 L 571 922 L 578 922 L 584 918 L 597 914 Q 609 912 617 915 L 623 917 L 635 925 Q 643 933 648 945 L 651 959 L 648 961 L 637 960 L 615 943 L 605 939 Q 595 937 591 941 Q 583 946 580 956 L 575 974 Q 574 984 576 991 L 580 1002 L 585 1010 Q 592 1019 605 1024 Q 612 1024 616 1028 Q 627 1028 635 1032 L 650 1032 L 656 1029 L 661 1029 Q 672 1025 680 1018 Q 687 1012 691 1002 L 695 986 L 695 965 L 694 964 L 691 940 L 689 937 L 683 917 L 672 896 L 656 872 L 621 832 L 606 817 L 587 794 L 566 764 Q 564 759 559 759 Z " /><path fill="rgb(254,254,254)" stroke="rgb(254,254,254)" stroke-width="1" opacity="0.996078431372549" d="M 423.5 509 Q 437.1 509.9 443 518.5 Q 446.5 522.5 445 531.5 L 441 539 L 432.5 543 L 421.5 544 L 411.5 541 L 405 535.5 Q 400.8 531.7 402 522.5 Q 403.4 516.4 408.5 514 L 417.5 510 Q 422.2 511.2 423.5 509 Z " /><path fill="rgb(254,254,254)" stroke="rgb(254,254,254)" stroke-width="1" opacity="0.996078431372549" d="M 416.5 562 Q 426 560.5 431.5 563 L 435.5 565 L 443 572.5 L 444 583.5 L 439.5 591 Q 433.1 598.6 418.5 598 L 407 595 Q 408.1 592.3 405.5 593 L 399 583.5 L 399 575.5 L 405.5 566 L 416.5 562 Z " /><path fill="rgb(254,254,254)" stroke="rgb(254,254,254)" stroke-width="1" opacity="0.996078431372549" d="M 418.5 616 L 431.5 617 L 441 624.5 Q 444.8 627.7 443 636.5 L 437 646 Q 431 651.7 417.5 651 Q 407 649 401 642.5 Q 397.2 637.8 399 627.5 L 405.5 620 Q 408.1 620.7 407 618 L 409.5 618 L 418.5 616 Z " /><path fill="rgb(254,254,254)" stroke="rgb(254,254,254)" stroke-width="1" opacity="0.996078431372549" d="M 416.5 670 L 429.5 671 Q 436 672.5 439 677.5 Q 443.7 681.3 442 691.5 L 437.5 699 Q 430.3 704.8 417.5 705 L 412.5 704 L 402 697.5 Q 396.7 693.8 398 683.5 Q 399 675.5 405.5 673 L 416.5 670 Z " /><path fill="rgb(254,254,254)" stroke="rgb(254,254,254)" stroke-width="1" opacity="0.996078431372549" d="M 411.5 723 L 429.5 723 L 439 729.5 Q 443.9 733.6 442 744.5 L 437.5 751 L 431.5 755 L 417.5 758 L 408.5 755 L 399 746.5 L 398 737.5 L 402 728 L 411.5 723 Z " /><path fill="rgb(254,254,254)" stroke="rgb(254,254,254)" stroke-width="1" opacity="0.996078431372549" d="M 419.5 776 Q 422.7 778.3 429.5 777 L 437 782 L 441 790.5 L 441 796.5 Q 438.8 803.3 433.5 807 Q 426.6 812.6 412.5 811 L 408.5 810 L 398 801.5 L 396 791.5 L 399 783.5 L 401.5 781 L 408.5 777 L 418.5 777 L 419.5 776 Z " /><path fill="rgb(254,254,254)" stroke="rgb(254,254,254)" stroke-width="1" opacity="0.996078431372549" d="M 415.5 828 L 428.5 829 L 437 835.5 Q 441.9 839.6 440 850.5 L 433.5 859 L 426.5 863 L 417.5 863 L 416.5 864 L 403.5 860 L 398 854.5 Q 394.5 850.5 396 841.5 L 401.5 833 L 408.5 829 Q 414 830.5 415.5 828 Z " /><path fill="rgb(254,254,254)" stroke="rgb(254,254,254)" stroke-width="1" opacity="0.996078431372549" d="M 410.5 881 L 425.5 881 Q 433.5 883.5 438 889.5 Q 441.1 893.9 440 902.5 Q 438.4 909.4 432.5 912 L 421.5 916 L 413.5 916 L 399 909 Q 395.5 905.2 395 897.5 Q 396.7 889.2 402.5 885 L 410.5 881 Z " /><path fill="rgb(254,254,254)" stroke="rgb(254,254,254)" stroke-width="1" opacity="0.996078431372549" d="M 413.5 936 Q 430.2 934.3 437 942.5 L 440 946.5 L 442 953.5 Q 440.6 961 435.5 965 L 429.5 969 L 418.5 971 L 407.5 969 L 399 962.5 L 396 955.5 L 396 951.5 L 399 944.5 L 403.5 940 L 413.5 936 Z " /><path fill="rgb(254,254,254)" stroke="rgb(254,254,254)" stroke-width="1" opacity="0.996078431372549" d="M 410.5 982 L 436.5 982 L 443 986.5 L 443 1007.5 L 446.5 1013 Q 451.3 1011.8 452.5 1014 L 454.5 1014 L 458.5 1013 L 483.5 1013 L 488.5 1014 L 499 1019.5 L 503 1028.5 L 503 1039.5 L 504 1041.5 Q 501.7 1042.8 503 1047.5 L 497.5 1055 L 493.5 1057 L 485.5 1057 L 484.5 1058 L 483.5 1057 L 447.5 1057 L 443 1060.5 L 444 1154.5 L 440.5 1159 L 404.5 1159 L 401 1156.5 Q 398.1 1151.9 399 1143.5 L 399 1141.5 L 400 1139.5 L 400 1061.5 L 396.5 1057 L 354.5 1057 L 346 1053 L 342 1047.5 L 341 1043.5 L 341 1024.5 L 346.5 1017 L 351.5 1014 L 362.5 1013 L 364.5 1013 L 366.5 1014 L 367.5 1013 L 385.5 1013 L 388.5 1014 L 398 1013 L 400 1009.5 Q 398.8 1004.7 401 1003.5 L 401 991.5 L 400 989.5 L 401 985.5 L 403.5 983 Q 409 984.5 410.5 982 Z " /><path fill="rgb(214,214,214)" stroke="rgb(214,214,214)" stroke-width="1" opacity="0.28627450980392155" d="M 410.5 9 L 431.5 9 L 436 12.5 L 439.5 20 L 441.5 21 L 453.5 21 L 459 24.5 L 462 29.5 L 463 38.5 L 461 47.5 L 456.5 53 Q 451.1 56.6 440.5 55 L 438 57.5 L 438 70.5 Q 440.8 79.2 447.5 84 L 477.5 85 L 478.5 86 L 491.5 87 L 505.5 91 Q 530.1 100.4 545 119.5 Q 553.5 130 559 143.5 L 563 155.5 L 564 175.5 L 563 176.5 L 562 188.5 L 554 207.5 Q 547.3 218.8 537.5 227 L 530.5 232 L 513.5 239 L 507 243.5 L 508 250.5 L 520 266.5 L 533 292.5 L 537 305.5 L 538 316.5 L 541 329.5 L 550 353.5 L 565 384.5 L 572 402.5 L 590 438.5 L 608 481.5 L 612 487.5 L 633 535.5 L 635 537.5 L 642 556.5 L 657 586.5 L 662 599.5 L 666 605.5 L 689 659.5 L 711 704.5 L 734 758.5 L 741 771.5 L 745 783.5 L 756 805.5 L 758 812.5 L 772 840.5 L 788 879.5 L 803 909.5 L 804 914.5 L 815 937.5 L 831 965.5 L 835 975.5 L 835 986.5 L 829 997 L 791.5 1025 L 758.5 1047 L 696.5 1084 L 594.5 1138 L 578.5 1143 L 571.5 1143 L 562 1135.5 L 558 1122.5 Q 558 1113 555 1106.5 L 555 1098.5 L 554 1097.5 L 553 1065.5 L 551 1056.5 L 550 1036.5 L 549 1035.5 L 549 1020.5 L 548 1019.5 L 548 1010.5 L 546 1000.5 L 546 982.5 L 545 981.5 L 545 969.5 L 544 968.5 L 544 953.5 L 542 943.5 L 542 927.5 L 541 926.5 L 541 917.5 L 539 906.5 L 539 895.5 L 537 886.5 L 537 875.5 L 535 867.5 L 535 856.5 L 533 847.5 L 531 808.5 L 530 807.5 L 530 798.5 L 528 789.5 L 526 753.5 L 524 743.5 L 524 727.5 L 523 726.5 L 523 717.5 L 521 706.5 L 519 672.5 L 517 665.5 L 516 645.5 L 515 644.5 L 512 593.5 L 511 592.5 L 510 575.5 L 508 566.5 L 508 547.5 L 507 546.5 L 504 519.5 L 499.5 512 L 490.5 509 L 484.5 509 L 471.5 505 L 467.5 505 Q 445.2 497.8 427.5 486 L 419.5 486 L 389.5 501 L 366.5 507 L 347.5 509 L 342 512.5 L 340 518.5 L 340 526.5 L 338 535.5 L 338 546.5 L 337 547.5 L 337 558.5 L 336 559.5 L 336 570.5 L 335 571.5 L 335 582.5 L 334 583.5 L 334 594.5 L 333 595.5 L 333 607.5 L 331 616.5 L 329 651.5 L 328 652.5 L 327 668.5 L 326 669.5 L 326 684.5 L 325 685.5 L 324 710.5 L 322 720.5 L 322 735.5 L 320 743.5 L 318 771.5 L 317 772.5 L 317 780.5 L 315 789.5 L 315 802.5 L 314 803.5 L 313 824.5 L 311 834.5 L 311 849.5 L 309 858.5 L 308 878.5 L 306 889.5 L 306 901.5 L 304 912.5 L 302 952.5 L 301 953.5 L 300 977.5 L 299 978.5 L 299 992.5 L 298 993.5 L 298 1002.5 L 297 1003.5 L 297 1012.5 L 295 1023.5 L 295 1037.5 L 294 1038.5 L 292 1070.5 L 291 1071.5 L 290 1125.5 L 287 1135.5 L 282.5 1140 Q 277 1144.5 265.5 1143 L 262.5 1141 L 238.5 1134 L 171.5 1098 L 124.5 1069 L 92.5 1047 L 45.5 1019 L 24 1004 L 15 991.5 L 14 979.5 L 103 773.5 L 116 747.5 L 130 713.5 L 155 661.5 L 164 639.5 L 166 637.5 L 168 630.5 L 175 617.5 L 195 570.5 L 236 483.5 L 252 445.5 L 267 416.5 L 274 398.5 Q 284.8 380.3 292 358.5 L 294 356.5 L 301 338.5 L 305 320.5 L 305 315.5 L 313 286.5 Q 322.6 267.1 336 251.5 L 338 244.5 L 335.5 242 L 315.5 233 L 303 223.5 L 301 220.5 Q 289.5 210 285 192.5 L 283 184.5 L 283 162.5 L 287 148.5 L 297 128.5 L 313.5 110 L 328.5 99 L 351.5 89 L 379.5 84 L 395.5 84 L 402 78.5 Q 408.2 72.2 406 57.5 L 403.5 55 Q 394 56.5 388.5 54 L 382 48.5 Q 378.3 42.7 380 31.5 L 385.5 23 L 389.5 21 Q 398.8 21.8 404 20 L 408.5 10 L 410.5 9 Z M 413 12 L 411 13 Q 407 15 407 21 L 404 23 L 395 23 L 388 25 L 384 29 L 382 39 L 385 49 L 391 52 L 404 52 L 406 53 L 409 59 L 408 74 L 403 82 Q 400 86 395 87 L 369 88 L 346 94 Q 327 101 314 113 Q 291 133 285 169 L 285 179 L 286 180 L 287 191 L 295 210 L 300 217 Q 308 226 319 232 L 338 240 L 341 245 L 340 251 Q 325 267 315 289 L 307 320 L 305 335 L 295 361 L 254 448 L 198 573 L 196 575 L 168 640 L 137 705 L 119 748 L 104 778 L 17 981 Q 16 993 23 999 L 33 1007 L 57 1023 L 72 1031 L 142 1077 L 187 1104 L 241 1132 L 269 1141 Q 278 1141 283 1137 L 287 1129 L 287 1097 L 288 1096 L 288 1081 L 289 1080 L 289 1065 L 290 1064 L 291 1043 L 292 1042 L 292 1032 L 293 1031 L 293 1019 L 294 1018 L 295 997 L 296 996 L 296 986 L 297 985 L 299 946 L 300 945 L 300 935 L 301 934 L 302 906 L 304 895 L 304 886 L 305 885 L 305 876 L 306 875 L 306 866 L 307 865 L 307 856 L 308 855 L 308 842 L 309 841 L 311 811 L 312 810 L 313 786 L 314 785 L 315 769 L 316 768 L 316 758 L 317 757 L 318 741 L 319 740 L 319 731 L 320 730 L 321 704 L 323 693 L 323 679 L 324 678 L 324 665 L 325 664 L 326 647 L 327 646 L 329 611 L 331 601 L 331 592 L 332 591 L 332 577 L 333 576 L 335 543 L 336 542 L 336 531 L 337 530 L 338 516 L 340 511 L 346 507 L 369 504 L 388 499 L 421 483 L 430 484 L 443 492 L 470 503 L 474 503 L 487 507 L 494 507 L 502 510 L 506 518 L 509 535 L 511 570 L 513 580 L 513 589 L 514 590 L 514 604 L 515 605 L 516 624 L 517 625 L 517 636 L 518 637 L 518 650 L 519 651 L 520 669 L 521 670 L 521 679 L 522 680 L 522 692 L 523 693 L 524 711 L 525 712 L 526 738 L 527 739 L 528 759 L 529 760 L 530 784 L 532 795 L 532 804 L 533 805 L 534 830 L 535 831 L 538 872 L 540 881 L 540 889 L 541 890 L 542 912 L 543 913 L 544 938 L 545 939 L 546 961 L 547 962 L 547 975 L 548 976 L 548 990 L 549 991 L 550 1013 L 551 1014 L 551 1027 L 552 1028 L 552 1042 L 553 1043 L 554 1059 L 555 1060 L 555 1076 L 556 1077 L 557 1100 L 558 1101 L 558 1109 L 561 1125 L 565 1136 L 573 1141 L 581 1140 L 600 1133 L 706 1076 L 745 1053 L 789 1024 L 826 996 Q 831 992 833 985 L 832 974 L 814 941 L 797 903 L 794 899 Q 771 841 744 788 L 720 731 L 693 672 L 690 668 L 653 584 L 638 554 L 629 531 L 602 475 L 586 436 L 547 354 L 540 336 L 536 320 L 535 309 L 529 290 L 519 270 L 504 249 Q 503 243 505 241 L 526 232 L 540 222 Q 539 219 542 220 Q 551 210 557 196 L 561 180 L 561 161 L 558 148 L 549 130 L 540 119 L 538 116 Q 523 99 500 92 L 483 88 L 449 87 L 446 86 Q 438 80 435 71 L 435 57 L 436 54 L 443 52 Q 451 54 455 51 L 460 44 Q 462 32 458 28 L 451 23 L 440 23 L 438 22 L 435 20 L 434 14 L 430 12 L 413 12 Z " /><path fill="rgb(214,214,214)" stroke="rgb(214,214,214)" stroke-width="1" opacity="0.28627450980392155" d="M 420.5 103 L 425.5 103 L 434.5 107 L 448 118.5 Q 458.9 131.6 464 150.5 L 466 158.5 L 466 184.5 L 460 203.5 L 448.5 217 L 435.5 225 L 412.5 226 L 402.5 223 L 394 215.5 L 388 207.5 L 382 193.5 L 380 182.5 L 379 163.5 L 380 162.5 L 381 148.5 L 384 139.5 Q 391.5 123 404.5 112 L 420.5 103 Z M 420 106 L 408 113 Q 396 123 388 137 L 383 150 Q 385 155 382 157 L 382 180 Q 385 181 383 188 L 392 210 L 404 221 L 415 224 L 434 223 L 448 215 Q 455 209 459 200 L 464 181 L 464 164 L 461 150 Q 457 134 448 123 Q 441 113 430 107 L 420 106 Z " /><path fill="rgb(214,214,214)" stroke="rgb(214,214,214)" stroke-width="1" opacity="0.28627450980392155" d="M 360.5 113 Q 366 112 367 115.5 L 367 118.5 Q 357.1 131.6 352 149.5 L 351 171.5 L 355 194.5 L 364 217.5 Q 362.8 221.3 356.5 220 Q 336.6 213.9 325 199.5 L 317 184.5 L 315 168.5 L 316 167.5 L 316 157.5 L 319 147.5 L 324 138.5 L 335.5 126 L 347.5 118 L 360.5 113 Z M 360 116 L 346 122 L 339 127 Q 329 135 322 147 L 318 161 L 318 177 Q 320 189 327 198 Q 335 207 346 213 L 356 217 L 361 217 L 352 194 L 348 172 L 348 159 L 351 144 Q 356 130 364 120 Q 366 114 360 116 Z " /><path fill="rgb(214,214,214)" stroke="rgb(214,214,214)" stroke-width="1" opacity="0.28627450980392155" d="M 480.5 114 Q 505.6 120.4 519 138.5 Q 525.7 147.3 529 159.5 L 530 175.5 Q 526.7 194.7 514.5 205 L 500.5 213 L 488.5 217 L 482.5 217 L 481 213.5 L 487 203.5 L 492 190.5 L 493 176.5 L 494 175.5 L 494 164.5 L 493 163.5 L 492 148.5 L 487 134.5 L 478 119.5 L 478 115 L 480.5 114 Z M 481 117 L 483 124 L 490 135 L 494 146 L 496 157 L 496 183 Q 494 184 495 189 Q 491 203 484 215 Q 500 213 512 204 Q 523 195 527 178 L 526 160 Q 522 146 514 137 L 498 123 L 489 118 L 481 117 Z " /><path fill="rgb(214,214,214)" stroke="rgb(214,214,214)" stroke-width="1" opacity="0.28627450980392155" d="M 383.5 247 L 405.5 248 L 410 251.5 L 411 260.5 L 407 274.5 L 403 281.5 L 385.5 300 L 359.5 319 L 350.5 324 L 345.5 325 L 343 322.5 L 343 303.5 Q 352.7 271.2 373.5 250 L 383.5 247 Z M 381 250 L 372 255 Q 354 276 345 306 L 345 320 L 346 322 Q 371 311 390 293 Q 399 285 405 273 L 408 262 L 408 254 L 406 251 L 402 250 L 381 250 Z " /><path fill="rgb(214,214,214)" stroke="rgb(214,214,214)" stroke-width="1" opacity="0.28627450980392155" d="M 436.5 248 L 465.5 248 Q 473.7 251.3 478 258.5 L 490 276.5 L 500 298.5 L 502 306.5 L 502 321.5 L 501 324 L 494.5 325 L 465.5 308 L 446 289.5 L 436 271.5 L 432 253.5 L 434 249 L 436.5 248 Z M 441 250 L 436 251 L 435 254 Q 438 280 454 294 Q 456 293 455 296 L 469 307 L 492 321 L 499 322 L 499 306 L 492 286 L 481 267 L 472 255 Q 469 256 470 253 L 462 250 L 441 250 Z " /><path fill="rgb(214,214,214)" stroke="rgb(214,214,214)" stroke-width="1" opacity="0.28627450980392155" d="M 418.5 303 L 426.5 304 L 443.5 318 L 469.5 335 L 484.5 343 L 492 349.5 Q 495.3 353.2 494 361.5 Q 486.4 381.4 470.5 393 L 438.5 416 Q 430.3 421.3 416.5 421 L 404.5 417 L 391.5 408 L 363 380.5 L 353 368.5 L 350 362.5 L 350 353.5 L 355.5 347 L 380.5 328 L 418.5 303 Z M 422 305 L 410 311 L 360 347 Q 354 350 352 357 L 354 365 L 363 377 L 391 404 L 406 415 L 415 418 L 426 418 L 436 415 Q 455 404 471 389 L 474 387 Q 485 377 491 362 Q 492 355 490 352 L 485 346 L 462 333 Q 442 322 427 307 L 422 305 Z " /><path fill="rgb(214,214,214)" stroke="rgb(214,214,214)" stroke-width="1" opacity="0.28627450980392155" d="M 342.5 391 Q 348.3 390.3 349 394.5 Q 360.3 412.7 376.5 426 Q 388.5 437 405.5 443 Q 414.6 446.9 429.5 445 Q 446.9 440.4 459.5 431 L 487 405.5 L 494.5 396 L 498.5 394 L 501 395 L 503 407.5 L 504 445.5 L 505 446.5 L 505 469.5 L 506 473.5 L 505 478.5 L 502.5 481 L 492.5 481 L 470.5 476 Q 448 467.5 430.5 454 L 418.5 453 L 412.5 455 L 404.5 461 L 381.5 473 L 353.5 480 L 340.5 481 L 337 478.5 L 339 396.5 L 342.5 391 Z M 344 394 L 342 396 Q 343 400 341 402 L 341 438 L 340 439 L 340 468 L 339 469 L 340 478 L 343 479 L 356 476 L 363 476 L 380 471 Q 396 465 408 455 L 419 451 Q 427 450 432 452 L 449 463 L 465 471 L 495 479 Q 502 481 503 477 L 503 457 L 502 456 L 502 441 L 501 440 L 501 415 L 500 414 Q 501 403 499 398 Q 494 397 493 402 Q 494 404 491 403 L 487 410 L 459 435 L 433 447 L 410 447 L 401 444 Q 376 433 360 414 Q 361 411 358 412 L 347 397 L 344 394 Z " /><path fill="rgb(214,214,214)" stroke="rgb(214,214,214)" stroke-width="1" opacity="0.28627450980392155" d="M 535.5 403 L 540 406.5 L 563 458.5 L 584 499.5 L 587 507.5 L 587 511.5 L 567 532.5 L 545.5 562 L 542 560.5 Q 539.8 555.7 541 547.5 L 540 546.5 L 539 506.5 L 538 505.5 L 538 492.5 L 537 491.5 L 537 475.5 L 536 474.5 L 536 458.5 L 535 457.5 L 535 436.5 L 534 435.5 L 534 422.5 L 533 421.5 L 533 405.5 L 535.5 403 Z M 537 408 L 535 410 Q 538 413 536 422 L 537 423 L 537 440 L 538 441 L 538 470 L 540 481 L 542 537 L 543 538 L 544 557 L 546 559 L 563 534 L 571 526 Q 570 523 573 524 L 584 511 L 584 507 L 582 502 L 562 463 Q 554 439 542 420 L 540 413 L 537 408 Z " /><path fill="rgb(214,214,214)" stroke="rgb(214,214,214)" stroke-width="1" opacity="0.28627450980392155" d="M 307.5 404 Q 311.5 403.5 312 406.5 L 312 428.5 L 311 429.5 L 309 474.5 L 308 475.5 L 307 496.5 L 306 497.5 L 304 553.5 L 303 558.5 L 300.5 562 L 294 557.5 Q 280.8 532.7 260 515.5 Q 257 513.5 258 507.5 Q 280.2 466.2 298 420.5 L 307.5 404 Z M 307 408 L 286 454 L 284 461 L 261 507 L 262 514 Q 282 531 296 556 L 300 558 L 301 557 L 304 489 L 305 488 L 306 465 L 308 454 L 308 433 L 309 432 L 309 417 L 310 416 L 309 411 Q 310 407 307 408 Z " /><path fill="rgb(214,214,214)" stroke="rgb(214,214,214)" stroke-width="1" opacity="0.28627450980392155" d="M 415.5 506 Q 427.6 504.4 435.5 507 L 446 515.5 Q 450.4 520.6 449 531.5 Q 446.9 539.9 440.5 544 Q 433.6 549.6 419.5 548 Q 409 546 403 539.5 L 398 530.5 L 398 522.5 Q 400.1 515.1 405.5 511 L 415.5 506 Z M 420 508 L 409 512 L 402 519 L 400 526 L 403 536 L 412 543 L 422 546 L 435 544 L 442 540 L 447 531 Q 448 521 444 518 Q 438 507 420 508 Z " /><path fill="rgb(214,214,214)" stroke="rgb(214,214,214)" stroke-width="1" opacity="0.28627450980392155" d="M 244.5 543 L 247.5 543 L 256 551.5 L 272 576.5 L 286 607.5 L 292 634.5 L 293 658.5 L 292 659.5 L 290 677.5 L 284 698.5 L 274 723.5 L 262 746.5 L 242 772.5 L 166 856.5 Q 151.7 873.7 141 894.5 L 132 913.5 L 125 933.5 L 122 950.5 L 121 981.5 L 122 982.5 L 123 996.5 L 128 1011.5 L 137 1027.5 L 147.5 1039 Q 156.5 1046.5 168.5 1051 L 188.5 1056 L 207.5 1057 L 208.5 1056 L 215.5 1056 L 232.5 1053 L 254.5 1043 L 258 1045.5 L 259 1053.5 L 256 1066.5 L 253 1090.5 L 249 1102 Q 246.6 1103.8 240.5 1103 L 193.5 1080 L 137.5 1047 L 79.5 1006 Q 63.5 995 51 980.5 L 48 974.5 L 48 968.5 Q 59.1 938.6 74 912.5 Q 90.5 888 112.5 869 L 176.5 816 L 223 773.5 L 226.5 769 Q 228.8 769.8 228 767.5 L 242 752.5 L 264 719.5 L 272 699.5 L 276 684.5 L 277 659.5 L 276 658.5 L 276 650.5 L 271 635.5 Q 266 625.5 257.5 619 Q 247.2 610.8 228.5 611 L 227.5 612 L 213.5 613 Q 211.3 612.3 212 608.5 L 233 565.5 L 237 554.5 L 241 546.5 L 244.5 543 Z M 246 546 L 237 561 L 234 570 L 215 608 L 217 611 L 224 609 L 239 609 Q 241 612 248 611 L 261 618 L 273 634 L 277 644 L 279 654 L 279 665 L 280 666 L 279 684 L 277 693 L 266 722 L 238 762 L 206 794 L 163 831 L 130 857 L 95 890 Q 96 892 93 891 L 81 907 L 70 925 L 51 968 L 52 978 L 62 988 Q 64 987 63 990 Q 105 1023 152 1053 L 222 1092 L 242 1101 L 246 1101 L 248 1099 L 250 1093 L 253 1070 L 254 1069 L 254 1062 L 256 1057 L 256 1048 L 255 1046 L 232 1056 L 215 1058 L 214 1059 L 190 1059 L 177 1056 L 155 1047 L 142 1038 L 132 1025 L 125 1012 L 121 1001 L 121 996 L 119 990 L 119 956 L 120 955 L 120 947 L 123 932 L 130 912 Q 151 866 184 833 Q 183 830 186 831 L 186 830 L 216 798 Q 215 795 218 796 L 218 794 L 220 794 L 220 793 L 243 768 L 262 742 L 278 708 L 287 679 L 290 663 L 290 640 L 285 613 L 271 581 L 250 549 L 246 546 Z " /><path fill="rgb(214,214,214)" stroke="rgb(214,214,214)" stroke-width="1" opacity="0.28627450980392155" d="M 597.5 543 Q 603 542 604 545.5 L 633 610.5 Q 631.8 614.3 625.5 613 L 624.5 612 L 605.5 612 Q 593 614.7 585 621 Q 586.1 623.7 583.5 623 Q 574.5 632 570 645.5 L 568 655.5 L 568 681.5 L 572 697.5 L 587 731.5 Q 609.1 765.4 639.5 791 L 737.5 874 L 761 897.5 L 769 908.5 L 778 925.5 L 794 960.5 L 798 971.5 L 798 975.5 L 786.5 989 Q 751 1018 712.5 1044 L 633.5 1089 L 602.5 1104 L 597.5 1104 L 594 1099.5 L 592 1090.5 L 587 1047.5 L 589.5 1044 L 595.5 1045 Q 605.4 1051.1 618.5 1054 L 630.5 1055 L 631.5 1056 L 650.5 1056 L 651.5 1055 L 665.5 1054 L 677.5 1050 Q 691.8 1043.8 702 1033.5 Q 713.5 1022 720 1005.5 L 724 989.5 L 724 961.5 L 720 938.5 L 715 921.5 L 708 904.5 L 695 880.5 Q 681.6 858.9 665 840.5 L 619 791.5 L 591 758.5 L 575 732.5 L 563 706.5 L 554 676.5 L 554 668.5 L 552 660.5 L 552 637.5 L 553 636.5 L 555 618.5 L 564 592.5 L 574 573.5 L 595 544 L 597.5 543 Z M 598 546 L 596 548 Q 597 550 594 549 L 577 574 L 565 597 L 556 626 L 555 643 L 554 644 L 556 674 L 559 686 L 570 717 L 579 735 L 592 756 L 609 777 L 667 839 Q 684 858 698 881 L 707 897 L 718 923 L 723 940 L 723 945 L 726 957 L 726 994 L 725 999 Q 719 1022 703 1037 Q 693 1047 679 1052 L 668 1056 L 651 1059 L 633 1059 L 621 1056 L 616 1056 L 602 1051 L 600 1049 L 590 1047 L 593 1081 L 596 1097 L 599 1101 L 606 1100 L 627 1090 Q 647 1076 672 1066 Q 690 1052 712 1042 L 761 1007 L 789 984 L 795 976 L 795 972 L 792 963 L 780 935 L 768 912 L 756 896 L 738 877 L 710 853 Q 707 854 708 851 L 690 836 Q 687 837 688 834 L 682 830 L 635 790 Q 605 765 584 732 L 569 698 L 565 680 L 565 656 Q 567 654 566 650 Q 569 635 577 627 L 594 613 L 610 609 L 630 610 L 602 548 Q 601 545 598 546 Z " /><path fill="rgb(214,214,214)" stroke="rgb(214,214,214)" stroke-width="1" opacity="0.28627450980392155" d="M 418.5 558 Q 437 557 444 567.5 L 448 576.5 L 448 583.5 Q 446.1 592.6 439.5 597 L 432.5 601 L 419.5 603 L 406.5 599 L 400 593.5 Q 394.5 588 395 576.5 Q 397.3 565.8 405.5 561 L 418.5 558 Z M 415 561 L 410 562 L 405 565 L 398 575 Q 396 586 401 591 Q 406 598 417 600 L 427 600 L 437 596 L 445 586 Q 447 573 441 568 L 431 561 L 415 561 Z " /><path fill="rgb(214,214,214)" stroke="rgb(214,214,214)" stroke-width="1" opacity="0.28627450980392155" d="M 414.5 612 Q 436.1 609.9 444 621.5 L 447 629.5 L 447 636.5 Q 444.2 645.7 437.5 651 Q 430.2 657.2 414.5 655 Q 402.6 652.4 397 643.5 Q 393.4 638.1 395 627.5 Q 397.6 620.1 403.5 616 L 414.5 612 Z M 420 614 L 407 617 L 402 621 L 397 630 Q 396 638 399 643 Q 405 650 417 653 L 430 652 L 436 649 Q 443 644 445 635 L 443 625 L 436 617 L 420 614 Z " /><path fill="rgb(214,214,214)" stroke="rgb(214,214,214)" stroke-width="1" opacity="0.28627450980392155" d="M 229.5 638 Q 237.8 637.8 241 642.5 L 246 653.5 L 247 665.5 L 248 666.5 L 248 676.5 L 243 698.5 L 232 719.5 Q 210 750 182.5 775 L 122.5 825 L 116 826 L 116 820.5 L 139 773.5 L 167 709.5 L 172.5 701 L 178.5 701 L 184.5 705 L 196.5 709 L 209.5 709 Q 224.5 705 233 694.5 Q 236.2 691.2 235 683.5 L 230.5 676 L 224.5 675 L 212.5 683 L 200.5 684 L 191 676.5 Q 188.8 671.7 190 663.5 Q 193.2 654.2 200.5 649 Q 212.9 641.4 229.5 638 Z M 228 641 Q 212 644 201 652 Q 195 657 192 666 L 192 672 L 194 677 Q 197 681 203 682 L 211 681 L 226 672 L 233 674 Q 237 678 238 685 Q 238 694 233 699 Q 223 709 207 712 L 192 710 L 175 703 L 169 712 L 167 719 L 153 747 L 133 793 L 121 816 L 119 823 L 123 822 L 131 814 Q 133 815 132 812 Q 154 798 174 779 Q 176 780 175 777 L 177 777 L 200 755 Q 199 752 202 753 L 233 714 Q 242 700 245 682 L 244 657 L 239 645 Q 237 639 228 641 Z " /><path fill="rgb(214,214,214)" stroke="rgb(214,214,214)" stroke-width="1" opacity="0.28627450980392155" d="M 610.5 638 L 618.5 638 L 634.5 644 Q 644.3 649.3 651 657.5 Q 655.9 662.6 655 673.5 L 649.5 682 L 643.5 684 L 637.5 684 L 619.5 675 L 614.5 675 L 610 679.5 L 608 687.5 L 612 697 L 630.5 707 L 644.5 709 Q 646 706.5 651.5 708 L 671.5 701 L 675 703.5 L 698 755.5 L 726 813.5 L 730 826.5 Q 729.3 828.8 725.5 828 L 683.5 794 L 655.5 768 L 654 768 Q 655.1 765.3 652.5 766 Q 626.4 742.6 608 711.5 L 599 689.5 L 598 678.5 L 597 677.5 L 597 660.5 L 600 648.5 L 607.5 639 L 610.5 638 Z M 613 640 L 608 642 L 602 651 L 600 659 L 600 681 L 604 697 L 615 719 L 633 743 Q 671 782 715 816 Q 717 815 716 818 L 726 824 L 727 824 L 674 707 L 671 704 L 649 711 L 633 710 L 614 701 Q 608 697 606 690 Q 605 681 609 677 L 615 672 L 621 673 L 639 682 L 647 681 L 652 675 L 652 666 L 647 657 L 635 647 L 627 643 L 613 640 Z " /><path fill="rgb(214,214,214)" stroke="rgb(214,214,214)" stroke-width="1" opacity="0.28627450980392155" d="M 417.5 665 Q 435.7 664.9 443 675.5 Q 447.5 681 446 692.5 L 440.5 702 Q 432.2 709.7 415.5 709 Q 404.2 706.8 398 699.5 Q 392.7 694.8 394 683.5 L 398 674 L 400 674 Q 398.9 671.3 401.5 672 L 406.5 668 L 417.5 665 Z M 416 668 L 405 672 Q 398 676 396 686 L 396 690 L 399 697 L 405 702 L 419 707 Q 430 706 438 701 Q 443 698 444 691 Q 445 683 442 679 Q 435 667 416 668 Z " /><path fill="rgb(214,214,214)" stroke="rgb(214,214,214)" stroke-width="1" opacity="0.28627450980392155" d="M 414.5 719 L 432.5 720 L 442 726.5 L 446 735.5 L 446 744.5 L 439.5 755 L 424.5 762 L 416.5 762 Q 404.4 759.6 398 751.5 Q 394 746.5 394 737.5 L 396 730.5 L 401.5 724 L 408.5 720 Q 413.2 721.3 414.5 719 Z M 417 721 L 408 723 L 403 726 L 397 736 Q 396 746 400 751 L 406 755 L 415 759 L 427 759 L 438 753 Q 443 750 444 743 L 443 733 L 441 730 L 431 722 L 417 721 Z " /><path fill="rgb(214,214,214)" stroke="rgb(214,214,214)" stroke-width="1" opacity="0.28627450980392155" d="M 282.5 761 Q 287.3 760.3 288 763.5 L 288 781.5 L 287 782.5 L 285 808.5 L 284 809.5 L 282 833.5 L 281 834.5 L 281 843.5 L 280 844.5 L 280 855.5 L 279 856.5 L 278 876.5 L 277 877.5 L 277 890.5 L 276 891.5 L 276 903.5 L 275 904.5 L 274 918.5 L 272.5 920 L 269.5 921 L 251.5 913 L 233.5 912 L 219.5 916 Q 208.6 922 201 931.5 L 194 944.5 Q 191.1 949.1 192 957.5 Q 194.3 962.8 201.5 963 L 210.5 960 Q 221.6 948.6 237.5 942 L 249.5 941 L 260 949.5 Q 269.8 963.2 268 988.5 L 266 996.5 L 262 1003.5 L 249.5 1017 Q 238.8 1024.3 224.5 1028 L 210.5 1029 L 209.5 1030 L 199.5 1030 L 198.5 1029 L 191.5 1029 L 181.5 1027 Q 171.2 1022.8 164 1015.5 L 156 1002.5 L 153 992.5 L 152 987.5 L 152 957.5 L 153 956.5 L 154 942.5 L 158 928.5 L 176 892.5 L 199 862.5 L 258 796.5 L 282.5 761 Z M 284 764 L 268 788 L 250 809 Q 251 811 248 810 L 244 817 L 219 844 Q 220 846 217 845 L 185 884 L 169 910 L 158 937 L 155 953 L 155 963 L 154 964 L 155 991 Q 158 1004 165 1013 L 175 1021 L 184 1025 L 193 1027 L 217 1027 Q 218 1025 223 1026 L 236 1022 L 250 1014 Q 260 1005 265 992 L 265 970 L 261 957 L 256 949 L 248 943 L 243 943 L 229 949 L 214 961 L 205 965 Q 197 966 194 963 L 189 956 L 193 941 L 201 928 Q 212 914 233 910 L 254 911 L 270 918 L 272 916 L 274 886 L 275 885 L 275 874 L 276 873 L 276 861 L 278 851 L 278 840 L 279 839 L 279 828 L 281 820 L 284 785 L 285 784 L 285 774 L 286 773 Q 288 767 285 766 Q 286 763 284 764 Z " /><path fill="rgb(214,214,214)" stroke="rgb(214,214,214)" stroke-width="1" opacity="0.28627450980392155" d="M 558 762 L 561.5 762 L 567 767.5 L 585 793.5 L 616.5 830 Q 618.8 829.3 618 831.5 L 657 875.5 L 679 911.5 L 684 923.5 L 691 947.5 L 692 961.5 L 693 962.5 L 693 986.5 L 691 996.5 L 687 1006.5 L 678.5 1017 L 671.5 1022 L 658.5 1028 L 641.5 1030 L 640.5 1029 L 622.5 1028 L 606.5 1023 Q 595.2 1018.8 588 1010.5 Q 581 1002.5 578 990.5 Q 575.5 983 577 971.5 L 583 952.5 L 591.5 942 L 600.5 940 L 614.5 945 L 633.5 960 L 645.5 964 L 652 959.5 Q 653.1 949.9 650 944.5 Q 644.5 931.5 634.5 923 L 618.5 914 L 614.5 913 L 594.5 913 L 574.5 921 L 572 920 L 570 913.5 L 570 905.5 L 569 904.5 L 569 887.5 L 568 886.5 L 565 839.5 L 564 838.5 L 564 829.5 L 563 828.5 L 563 819.5 L 562 818.5 L 561 799.5 L 559 788.5 L 559 778.5 L 558 777.5 L 558 762 Z M 560 766 L 561 782 L 562 783 L 562 792 L 563 793 L 563 805 L 565 815 L 565 824 L 567 834 L 569 871 L 571 881 L 572 910 Q 574 911 573 916 L 576 918 L 584 914 L 595 911 L 617 911 Q 628 913 635 920 Q 650 931 655 953 Q 656 960 653 963 L 651 965 L 645 967 L 631 961 Q 620 949 605 943 L 596 943 L 590 946 L 583 959 L 579 975 Q 579 996 589 1008 Q 595 1016 606 1020 L 621 1025 L 632 1027 L 651 1027 L 656 1026 L 674 1018 Q 687 1009 690 990 L 690 958 L 684 931 Q 670 893 645 866 Q 646 863 643 864 L 638 858 Q 639 855 636 856 L 636 855 L 584 797 L 565 770 L 560 766 Z " /><path fill="rgb(214,214,214)" stroke="rgb(214,214,214)" stroke-width="1" opacity="0.28627450980392155" d="M 411.5 772 Q 434.1 769.9 442 782.5 L 445 790.5 L 445 796.5 Q 442.9 806.4 435.5 811 L 423.5 815 L 413.5 815 Q 401.4 812.6 395 804.5 Q 390.8 799.7 392 789.5 Q 394.4 780.4 401.5 776 L 411.5 772 Z M 417 774 L 405 777 L 401 780 Q 395 784 394 792 L 396 802 L 406 810 L 416 813 L 427 812 L 434 809 Q 441 805 443 796 L 443 791 L 439 783 L 431 776 L 417 774 Z " /><path fill="rgb(214,214,214)" stroke="rgb(214,214,214)" stroke-width="1" opacity="0.28627450980392155" d="M 413.5 824 Q 433.6 822.4 441 833.5 Q 444.6 838.9 445 847.5 Q 443.4 856.9 437.5 862 L 433.5 865 L 424.5 868 L 413.5 868 Q 401.4 865.6 395 857.5 L 391 848.5 L 391 844.5 Q 393.4 834.4 400.5 829 L 405.5 826 L 413.5 824 Z M 418 826 L 405 829 L 401 832 L 394 843 L 394 850 L 399 859 L 406 863 L 417 866 Q 428 866 435 861 Q 440 857 442 851 Q 444 840 439 836 L 430 828 L 418 826 Z " /><path fill="rgb(214,214,214)" stroke="rgb(214,214,214)" stroke-width="1" opacity="0.28627450980392155" d="M 412.5 877 L 428.5 878 Q 436.2 879.9 440 885.5 Q 445.7 890.8 444 903.5 Q 441.1 911.6 434.5 916 Q 427.2 921.7 412.5 920 Q 402 918 396 911.5 L 391 901.5 L 391 895.5 Q 393.8 885.8 401.5 881 L 412.5 877 Z M 418 879 Q 416 882 410 880 L 402 884 Q 396 888 394 895 Q 392 903 396 908 L 402 913 L 416 918 Q 427 918 434 913 Q 440 909 442 902 Q 443 893 439 889 Q 435 883 428 880 L 421 880 L 418 879 Z " /><path fill="rgb(214,214,214)" stroke="rgb(214,214,214)" stroke-width="1" opacity="0.28627450980392155" d="M 414.5 932 Q 434.4 930.1 441 941.5 Q 446.5 946.5 445 958.5 Q 442.1 966.6 435.5 971 L 424 975.5 L 425.5 977 L 437.5 977 L 446 983.5 L 448 992.5 L 448 1006.5 L 449.5 1008 L 451.5 1009 L 485.5 1009 Q 497.6 1011.4 504 1019.5 L 507 1026.5 L 507 1047.5 Q 505.5 1054.5 500.5 1058 L 496.5 1060 L 485.5 1062 L 464.5 1062 L 463.5 1061 L 451.5 1061 L 448 1063.5 L 449 1155.5 L 446 1162 L 442.5 1164 Q 437.7 1162.8 436.5 1165 L 415.5 1165 L 414.5 1164 L 405.5 1164 L 398 1159.5 L 395 1151.5 L 395 1131.5 L 396 1130.5 L 396 1065.5 L 393.5 1062 L 361.5 1062 Q 360.2 1059.8 355.5 1061 Q 345.4 1058.6 340 1051.5 L 336 1042.5 L 335 1032.5 L 337 1022.5 L 346.5 1012 L 353.5 1009 L 387.5 1008 L 390.5 1009 L 396 1006.5 L 396 988.5 Q 396.9 981.9 401.5 979 Q 405.2 975.7 413.5 977 L 415 975.5 Q 401.2 973.3 395 963.5 L 393 959.5 L 392 951.5 Q 394.1 942.1 400.5 937 L 405.5 934 L 414.5 932 Z M 412 935 L 404 938 L 395 949 Q 393 959 398 964 Q 404 970 415 973 L 423 973 L 434 969 Q 441 965 443 957 Q 444 946 439 943 Q 435 937 428 935 L 412 935 Z M 412 979 L 404 981 L 399 987 L 399 1007 L 398 1009 L 396 1011 L 361 1011 Q 359 1014 354 1012 L 347 1015 L 340 1023 L 338 1031 Q 337 1046 344 1053 L 353 1058 L 358 1059 L 395 1059 L 397 1060 L 398 1063 L 398 1155 L 399 1157 L 404 1161 L 408 1162 L 440 1162 L 442 1161 L 447 1154 L 447 1133 L 446 1132 L 446 1114 L 445 1113 L 445 1063 L 449 1059 L 490 1059 L 499 1056 Q 504 1053 505 1046 Q 507 1029 501 1020 L 491 1013 L 480 1012 L 479 1011 L 471 1011 L 470 1012 Q 461 1009 449 1011 L 445 1007 L 445 989 L 444 986 L 437 980 L 412 979 Z " /></svg>